<?xml version="1.0" encoding="windows-1252" standalone="no"?>
<svg xmlns="http://www.w3.org/2000/svg" xmlns:xlink="http://www.w3.org/1999/xlink" contentStyleType="text/css" height="705px" preserveAspectRatio="none" style="width:958px;height:705px;background:#F5F5F5;" version="1.1" viewBox="0 0 958 705" width="958px" zoomAndPan="magnify"><defs/><g><rect fill="#F5F5F5" height="705" style="stroke:none;stroke-width:1.0;" width="958" x="0" y="0"/><line style="stroke:#181818;stroke-width:0.5;stroke-dasharray:5.0,5.0;" x1="74" x2="74" y1="81.2969" y2="625.0859"/><line style="stroke:#181818;stroke-width:0.5;stroke-dasharray:5.0,5.0;" x1="302" x2="302" y1="81.2969" y2="625.0859"/><line style="stroke:#181818;stroke-width:0.5;stroke-dasharray:5.0,5.0;" x1="565.5" x2="565.5" y1="81.2969" y2="625.0859"/><line style="stroke:#181818;stroke-width:0.5;stroke-dasharray:5.0,5.0;" x1="765.5" x2="765.5" y1="81.2969" y2="625.0859"/><rect fill="#F5F5F5" height="51.25" rx="2.5" ry="2.5" style="stroke:#38D430;stroke-width:2.0;" width="99" x="25" y="29.0469"/><text fill="#272727" font-family="sans-serif" font-size="16" font-weight="bold" lengthAdjust="spacing" textLength="85" x="32" y="50.8984">Software</text><text fill="#272727" font-family="sans-serif" font-size="16" font-weight="bold" lengthAdjust="spacing" textLength="77" x="36" y="69.5234">Provider</text><rect fill="#F5F5F5" height="51.25" rx="2.5" ry="2.5" style="stroke:#38D430;stroke-width:2.0;" width="99" x="25" y="624.0859"/><text fill="#272727" font-family="sans-serif" font-size="16" font-weight="bold" lengthAdjust="spacing" textLength="85" x="32" y="645.9375">Software</text><text fill="#272727" font-family="sans-serif" font-size="16" font-weight="bold" lengthAdjust="spacing" textLength="77" x="36" y="664.5625">Provider</text><text fill="#272727" font-family="sans-serif" font-size="14" lengthAdjust="spacing" textLength="43" x="278" y="77.9951">Client</text><ellipse cx="302.5" cy="13.5" fill="#F5F5F5" rx="8" ry="8" style="stroke:#38D430;stroke-width:0.5;"/><path d="M302.5,21.5 L302.5,48.5 M289.5,29.5 L315.5,29.5 M302.5,48.5 L289.5,63.5 M302.5,48.5 L315.5,63.5 " fill="none" style="stroke:#38D430;stroke-width:0.5;"/><text fill="#272727" font-family="sans-serif" font-size="14" lengthAdjust="spacing" textLength="43" x="278" y="637.0811">Client</text><ellipse cx="302.5" cy="648.8828" fill="#F5F5F5" rx="8" ry="8" style="stroke:#38D430;stroke-width:0.5;"/><path d="M302.5,656.8828 L302.5,683.8828 M289.5,664.8828 L315.5,664.8828 M302.5,683.8828 L289.5,698.8828 M302.5,683.8828 L315.5,698.8828 " fill="none" style="stroke:#38D430;stroke-width:0.5;"/><rect fill="#F5F5F5" height="32.625" rx="2.5" ry="2.5" style="stroke:#38D430;stroke-width:2.0;" width="78" x="526.5" y="47.6719"/><text fill="#272727" font-family="sans-serif" font-size="16" font-weight="bold" lengthAdjust="spacing" textLength="64" x="533.5" y="69.5234">U-Boot</text><rect fill="#F5F5F5" height="32.625" rx="2.5" ry="2.5" style="stroke:#38D430;stroke-width:2.0;" width="78" x="526.5" y="624.0859"/><text fill="#272727" font-family="sans-serif" font-size="16" font-weight="bold" lengthAdjust="spacing" textLength="64" x="533.5" y="645.9375">U-Boot</text><rect fill="#F5F5F5" height="51.25" rx="2.5" ry="2.5" style="stroke:#38D430;stroke-width:2.0;" width="223" x="654.5" y="29.0469"/><text fill="#272727" font-family="sans-serif" font-size="16" font-weight="bold" lengthAdjust="spacing" textLength="209" x="661.5" y="50.8984">ARM Trusted Firmware</text><text fill="#272727" font-family="sans-serif" font-size="16" font-weight="bold" lengthAdjust="spacing" textLength="49" x="741.5" y="69.5234">(ATF)</text><rect fill="#F5F5F5" height="51.25" rx="2.5" ry="2.5" style="stroke:#38D430;stroke-width:2.0;" width="223" x="654.5" y="624.0859"/><text fill="#272727" font-family="sans-serif" font-size="16" font-weight="bold" lengthAdjust="spacing" textLength="209" x="661.5" y="645.9375">ARM Trusted Firmware</text><text fill="#272727" font-family="sans-serif" font-size="16" font-weight="bold" lengthAdjust="spacing" textLength="49" x="741.5" y="664.5625">(ATF)</text><polygon fill="#272727" points="290.5,138.6953,300.5,142.6953,290.5,146.6953,294.5,142.6953" style="stroke:#272727;stroke-width:1.0;"/><line style="stroke:#272727;stroke-width:1.0;" x1="74.5" x2="296.5" y1="142.6953" y2="142.6953"/><text fill="#272727" font-family="sans-serif" font-size="13" lengthAdjust="spacing" textLength="204" x="81.5" y="107.3638">Deliver Patches and Procedures</text><text fill="#272727" font-family="sans-serif" font-size="13" lengthAdjust="spacing" textLength="121" x="81.5" y="122.4966">for U-Boot and ATF</text><text fill="#272727" font-family="sans-serif" font-size="13" lengthAdjust="spacing" textLength="69" x="81.5" y="137.6294">integration</text><rect fill="#F5F5F5" height="3" style="stroke:#F5F5F5;stroke-width:1.0;" width="951" x="0" y="171.2617"/><line style="stroke:#38D430;stroke-width:1.0;" x1="0" x2="951" y1="171.2617" y2="171.2617"/><line style="stroke:#38D430;stroke-width:1.0;" x1="0" x2="951" y1="174.2617" y2="174.2617"/><rect fill="#F5F5F5" height="23.1328" style="stroke:#38D430;stroke-width:2.0;" width="237" x="357" y="160.6953"/><text fill="#272727" font-family="sans-serif" font-size="13" font-weight="bold" lengthAdjust="spacing" textLength="218" x="363" y="176.7622">Patches Integration Process</text><polygon fill="#272727" points="553.5,210.9609,563.5,214.9609,553.5,218.9609,557.5,214.9609" style="stroke:#272727;stroke-width:1.0;"/><line style="stroke:#272727;stroke-width:1.0;" x1="302.5" x2="559.5" y1="214.9609" y2="214.9609"/><text fill="#272727" font-family="sans-serif" font-size="13" lengthAdjust="spacing" textLength="160" x="309.5" y="209.895">Integrate U-Boot Patches</text><path d="M570,227.9609 L570,282.9609 L737,282.9609 L737,237.9609 L727,227.9609 L570,227.9609 " fill="#F5F5F5" style="stroke:#38D430;stroke-width:0.5;"/><path d="M727,227.9609 L727,237.9609 L737,237.9609 L727,227.9609 " fill="#F5F5F5" style="stroke:#38D430;stroke-width:0.5;"/><text fill="#272727" font-family="sans-serif" font-size="13" lengthAdjust="spacing" textLength="73" x="576" y="245.0278">Patches for</text><text fill="#272727" font-family="sans-serif" font-size="13" lengthAdjust="spacing" textLength="59" x="576" y="260.1606">- TPL/SPL</text><text fill="#272727" font-family="sans-serif" font-size="13" lengthAdjust="spacing" textLength="146" x="576" y="275.2935">- Signature Verification</text><polygon fill="#272727" points="754,305.4922,764,309.4922,754,313.4922,758,309.4922" style="stroke:#272727;stroke-width:1.0;"/><line style="stroke:#272727;stroke-width:1.0;" x1="302.5" x2="760" y1="309.4922" y2="309.4922"/><text fill="#272727" font-family="sans-serif" font-size="13" lengthAdjust="spacing" textLength="141" x="309.5" y="304.4263">Integrate ATF Patches</text><path d="M771,322.4922 L771,377.4922 L946,377.4922 L946,332.4922 L936,322.4922 L771,322.4922 " fill="#F5F5F5" style="stroke:#38D430;stroke-width:0.5;"/><path d="M936,322.4922 L936,332.4922 L946,332.4922 L936,322.4922 " fill="#F5F5F5" style="stroke:#38D430;stroke-width:0.5;"/><text fill="#272727" font-family="sans-serif" font-size="13" lengthAdjust="spacing" textLength="73" x="777" y="339.5591">Patches for</text><text fill="#272727" font-family="sans-serif" font-size="13" lengthAdjust="spacing" textLength="86" x="777" y="354.6919">- Secure Boot</text><text fill="#272727" font-family="sans-serif" font-size="13" lengthAdjust="spacing" textLength="154" x="777" y="369.8247">- Platform Configuration</text><rect fill="#F5F5F5" height="3" style="stroke:#F5F5F5;stroke-width:1.0;" width="951" x="0" y="403.457"/><line style="stroke:#38D430;stroke-width:1.0;" x1="0" x2="951" y1="403.457" y2="403.457"/><line style="stroke:#38D430;stroke-width:1.0;" x1="0" x2="951" y1="406.457" y2="406.457"/><rect fill="#F5F5F5" height="23.1328" style="stroke:#38D430;stroke-width:2.0;" width="249" x="351" y="392.8906"/><text fill="#272727" font-family="sans-serif" font-size="13" font-weight="bold" lengthAdjust="spacing" textLength="230" x="357" y="408.9575">Hardware Integration Process</text><path d="M307,431.0234 L307,516.0234 L516,516.0234 L516,441.0234 L506,431.0234 L307,431.0234 " fill="#F5F5F5" style="stroke:#38D430;stroke-width:0.5;"/><path d="M506,431.0234 L506,441.0234 L516,441.0234 L506,431.0234 " fill="#F5F5F5" style="stroke:#38D430;stroke-width:0.5;"/><text fill="#272727" font-family="sans-serif" font-size="13" lengthAdjust="spacing" textLength="63" x="313" y="448.0903">Applies to</text><text fill="#272727" font-family="sans-serif" font-size="13" lengthAdjust="spacing" textLength="101" x="313" y="463.2231">- Firefly RK3288</text><text fill="#272727" font-family="sans-serif" font-size="13" lengthAdjust="spacing" textLength="113" x="313" y="478.356">- Radaxa Rock 5B</text><text fill="#272727" font-family="sans-serif" font-size="13" lengthAdjust="spacing" textLength="124" x="313" y="493.4888">- Pine64 RockPro64</text><text fill="#272727" font-family="sans-serif" font-size="13" lengthAdjust="spacing" textLength="188" x="313" y="508.6216">- Other Compatible Platforms</text><polygon fill="#272727" points="553.5,538.8203,563.5,542.8203,553.5,546.8203,557.5,542.8203" style="stroke:#272727;stroke-width:1.0;"/><line style="stroke:#272727;stroke-width:1.0;" x1="302.5" x2="559.5" y1="542.8203" y2="542.8203"/><text fill="#272727" font-family="sans-serif" font-size="13" lengthAdjust="spacing" textLength="239" x="309.5" y="537.7544">Apply platforms-specific adjustments</text><polygon fill="#272727" points="754,567.9531,764,571.9531,754,575.9531,758,571.9531" style="stroke:#272727;stroke-width:1.0;"/><line style="stroke:#272727;stroke-width:1.0;" x1="302.5" x2="760" y1="571.9531" y2="571.9531"/><text fill="#272727" font-family="sans-serif" font-size="13" lengthAdjust="spacing" textLength="239" x="309.5" y="566.8872">Apply platforms-specific adjustments</text><path d="M227,584.9531 L227,609.9531 L841,609.9531 L841,594.9531 L831,584.9531 L227,584.9531 " fill="#F5F5F5" style="stroke:#38D430;stroke-width:0.5;"/><path d="M831,584.9531 L831,594.9531 L841,594.9531 L831,584.9531 " fill="#F5F5F5" style="stroke:#38D430;stroke-width:0.5;"/><text fill="#272727" font-family="sans-serif" font-size="13" lengthAdjust="spacing" textLength="274" x="392.75" y="602.02">Validate Patches and Hardware Integration</text><!--SRC=[jLHHRzem47xFhxYMbqqQMe6MeKfCWbPiqzWM4TedNjpO2Hx1pcodBPlsttTs4WYG85wMlDZttNtV-Siv5vH5N32uaubK7MZr1lIwT-LTLCDTQ7K_s7S_t8DMT6DVpzChBbAYo1h-U83FFOj8bfY95CQb5ZmE6vDm5IkP2Lg1UWuQAILVZWf6eP5gB1Lbge9rAjW9HelNjk4JPNZ8Ko9C0tSrercXabMhC-KHcw9d3I9Rk5aXOByo9aBs2U6qWMO_vqok-iyZNniqBDBCZ6WjttTfJXtEmVLw5ggbd7EJD1NbMBEUmsjPx_apHyOJjML6lNA17d7_hLuFNVXVtfF_fBczJESDhayevIA6xbNzrPWlURWIJ6lerirym7ypwFHh8RD963p9X5eVqXq8bu6Cp0jHR25y9TqnBe5eA3SUiLSNxXBEXDclV6YFfJGk-y6kzj7Hx1lCLQODep3XQfrhl1dD9szT2IuyhrI1ziT2uXP_MWb_nf1FJBXa6eYWjfkGqKmnlH0HjfDBEmXv5e8Bms9539V2yuR3RUsNNJpdGE-6Go-NigAkyTjj7YkP2m9FuF23ul7IW8pAx98TErc8DipzwVl0dzfbm6D13FO9ZqpnY8T5Ipj1RBSgXzi6BPTue1Imq7BRBkpMJuX1P8tZ928UPnK3FXD5hUDD3Xo8bTwFqXHN6eoq_FZPM9HiOFQrrnqCR6H6A7abC9FX2cx6hWVyQVQlNGJf-zSsziCicPtnTOgwJpXuPQFws7chk86qJ6Zhb8NME23q9mxF6hFreNrdrRW3IZj8UVMxlFQH99nQvwlZLUVMFm00]--></g><script xmlns="" id="bw-fido2-page-script"/></svg>