<?xml version="1.0" encoding="UTF-8" standalone="no"?>
<svg xmlns="http://www.w3.org/2000/svg" xmlns:xlink="http://www.w3.org/1999/xlink" height="255px" preserveAspectRatio="none" style="width:1080px;height:255px;background:#F5F5F5;" version="1.1" viewBox="0 0 1080 255" width="1080px" zoomAndPan="magnify">
  <defs></defs>
  <g>
    <rect fill="#F5F5F5" height="255" style="stroke:none;stroke-width:1.0;" width="1080" x="0" y="0"></rect>
    <line style="stroke:#181818;stroke-width:0.5;stroke-dasharray:5.0,5.0;" x1="120" x2="120" y1="38.625" y2="218.2891"></line>
    <line style="stroke:#181818;stroke-width:0.5;stroke-dasharray:5.0,5.0;" x1="466" x2="466" y1="38.625" y2="218.2891"></line>
    <line style="stroke:#181818;stroke-width:0.5;stroke-dasharray:5.0,5.0;" x1="607" x2="607" y1="38.625" y2="218.2891"></line>
    <line style="stroke:#181818;stroke-width:0.5;stroke-dasharray:5.0,5.0;" x1="727" x2="727" y1="38.625" y2="218.2891"></line>
    <line style="stroke:#181818;stroke-width:0.5;stroke-dasharray:5.0,5.0;" x1="936.5" x2="936.5" y1="38.625" y2="218.2891"></line>
    <rect fill="#F5F5F5" height="32.625" rx="2.5" ry="2.5" style="stroke:#38D430;stroke-width:2.0;" width="190" x="25" y="5"></rect>
    <text fill="#272727" font-family="sans-serif" font-size="16" font-weight="bold" lengthAdjust="spacing" textLength="176" x="32" y="26.8516">BIOS/UEFI Firmware</text>
    <rect fill="#F5F5F5" height="32.625" rx="2.5" ry="2.5" style="stroke:#38D430;stroke-width:2.0;" width="190" x="25" y="217.2891"></rect>
    <text fill="#272727" font-family="sans-serif" font-size="16" font-weight="bold" lengthAdjust="spacing" textLength="176" x="32" y="239.1406">BIOS/UEFI Firmware</text>
    <rect fill="#F5F5F5" height="32.625" rx="2.5" ry="2.5" style="stroke:#38D430;stroke-width:2.0;" width="128" x="402" y="5"></rect>
    <text fill="#272727" font-family="sans-serif" font-size="16" font-weight="bold" lengthAdjust="spacing" textLength="114" x="409" y="26.8516">Boot Loader</text>
    <rect fill="#F5F5F5" height="32.625" rx="2.5" ry="2.5" style="stroke:#38D430;stroke-width:2.0;" width="128" x="402" y="217.2891"></rect>
    <text fill="#272727" font-family="sans-serif" font-size="16" font-weight="bold" lengthAdjust="spacing" textLength="114" x="409" y="239.1406">Boot Loader</text>
    <rect fill="#F5F5F5" height="32.625" rx="2.5" ry="2.5" style="stroke:#38D430;stroke-width:2.0;" width="54" x="580" y="5"></rect>
    <text fill="#272727" font-family="sans-serif" font-size="16" font-weight="bold" lengthAdjust="spacing" textLength="40" x="587" y="26.8516">TPM</text>
    <rect fill="#F5F5F5" height="32.625" rx="2.5" ry="2.5" style="stroke:#38D430;stroke-width:2.0;" width="54" x="580" y="217.2891"></rect>
    <text fill="#272727" font-family="sans-serif" font-size="16" font-weight="bold" lengthAdjust="spacing" textLength="40" x="587" y="239.1406">TPM</text>
    <rect fill="#F5F5F5" height="32.625" rx="2.5" ry="2.5" style="stroke:#38D430;stroke-width:2.0;" width="87" x="684" y="5"></rect>
    <text fill="#272727" font-family="sans-serif" font-size="16" font-weight="bold" lengthAdjust="spacing" textLength="73" x="691" y="26.8516">Storage</text>
    <rect fill="#F5F5F5" height="32.625" rx="2.5" ry="2.5" style="stroke:#38D430;stroke-width:2.0;" width="87" x="684" y="217.2891"></rect>
    <text fill="#272727" font-family="sans-serif" font-size="16" font-weight="bold" lengthAdjust="spacing" textLength="73" x="691" y="239.1406">Storage</text>
    <rect fill="#F5F5F5" height="32.625" rx="2.5" ry="2.5" style="stroke:#38D430;stroke-width:2.0;" width="224" x="824.5" y="5"></rect>
    <text fill="#272727" font-family="sans-serif" font-size="16" font-weight="bold" lengthAdjust="spacing" textLength="210" x="831.5" y="26.8516">Operating System (OS)</text>
    <rect fill="#F5F5F5" height="32.625" rx="2.5" ry="2.5" style="stroke:#38D430;stroke-width:2.0;" width="224" x="824.5" y="217.2891"></rect>
    <text fill="#272727" font-family="sans-serif" font-size="16" font-weight="bold" lengthAdjust="spacing" textLength="210" x="831.5" y="239.1406">Operating System (OS)</text>
    <rect fill="#F5F5F5" height="3" style="stroke:#F5F5F5;stroke-width:1.0;" width="1073.5" x="0" y="69.1914"></rect>
    <line style="stroke:#38D430;stroke-width:1.0;" x1="0" x2="1073.5" y1="69.1914" y2="69.1914"></line>
    <line style="stroke:#38D430;stroke-width:1.0;" x1="0" x2="1073.5" y1="72.1914" y2="72.1914"></line>
    <rect fill="#F5F5F5" height="23.1328" style="stroke:#38D430;stroke-width:2.0;" width="301" x="386.25" y="58.625"></rect>
    <text fill="#272727" font-family="sans-serif" font-size="13" font-weight="bold" lengthAdjust="spacing" textLength="282" x="392.25" y="74.6919">[01S] Automated Device Provisioning</text>
    <polygon fill="#272727" points="454,108.8906,464,112.8906,454,116.8906,458,112.8906" style="stroke:#272727;stroke-width:1.0;"></polygon>
    <line style="stroke:#272727;stroke-width:1.0;" x1="120" x2="460" y1="112.8906" y2="112.8906"></line>
    <text fill="#272727" font-family="sans-serif" font-size="13" lengthAdjust="spacing" textLength="322" x="127" y="107.8247">Load and Verify Boot Loader (Client's Signed Only)</text>
    <polygon fill="#272727" points="715.5,138.0234,725.5,142.0234,715.5,146.0234,719.5,142.0234" style="stroke:#272727;stroke-width:1.0;"></polygon>
    <line style="stroke:#272727;stroke-width:1.0;" x1="466" x2="721.5" y1="142.0234" y2="142.0234"></line>
    <text fill="#272727" font-family="sans-serif" font-size="13" lengthAdjust="spacing" textLength="97" x="473" y="136.9575">Load OS Kernel</text>
    <polygon fill="#272727" points="924.5,167.1563,934.5,171.1563,924.5,175.1563,928.5,171.1563" style="stroke:#272727;stroke-width:1.0;"></polygon>
    <line style="stroke:#272727;stroke-width:1.0;" x1="466" x2="930.5" y1="171.1563" y2="171.1563"></line>
    <text fill="#272727" font-family="sans-serif" font-size="13" lengthAdjust="spacing" textLength="118" x="473" y="166.0903">Execute OS Kernel</text>
    <polygon fill="#272727" points="738.5,196.2891,728.5,200.2891,738.5,204.2891,734.5,200.2891" style="stroke:#272727;stroke-width:1.0;"></polygon>
    <line style="stroke:#272727;stroke-width:1.0;" x1="732.5" x2="935.5" y1="200.2891" y2="200.2891"></line>
    <text fill="#272727" font-family="sans-serif" font-size="13" lengthAdjust="spacing" textLength="185" x="744.5" y="195.2231">Access Unencrypted Storage</text>
    <!--SRC=[jPHDJzj048Rl_XK3EHGELVFHBo45AG5IeQPD90SkYCFY7QUZEBlkUXqmLVzxTnq7rh0RSQbzy6gVTzwP_HWVS4n989p9JAeUT0PV-ST1Dpfmf_lGwN-nRtjw09tqatsZg5YHo9bYQ_WJWNdECMLbfYTIw5hQ-DHip9BLKibIS0SDQZHIIjw_2XWbMggnL1oLmteEs-DekRUCELEQ4igPq05lLn7EuAYyUQQKujJiMI394mvdYF5tYIB1RmRd0PksverU_kEH3u4SbeIT3VNw_PHwt-9gxCzdaTToGJeB1MrPE5_DlQxdj27Zk2Tsf_1dRkWhxxzkUnJD_k_wv3_bV6gcjrtSEUESn1BwNNzhB7vHiX9O5D3ttVcO7X5wdxr8Lnd2dSoutOVy6SBX-78MVxYwc5p2XDJwdYay15Q0dNuXb5B3L39JIAtO3jkQnVn7pSot3MBJ_sovjMx6RS4iHyMqNNrS5HhNS3IBZskvgIEAXaEuwVRYMnYLMgwPHcv-RXio9pXNSaC5IM5ZXyF85WxlJvlouAGU01CShb5HMe6p3ZWwomY5VcUAegKmfZEHLSTHGurBK-lEnbX_HoKmSoHcxWGk7Z0fDJg2RHNFyQCaiITt9SozKrLkLz30Vm00]-->
  </g>
</svg>
