<?xml version="1.0" encoding="windows-1252" standalone="no"?>
<svg xmlns="http://www.w3.org/2000/svg" xmlns:xlink="http://www.w3.org/1999/xlink" contentStyleType="text/css" height="610px" preserveAspectRatio="none" style="width:553px;height:610px;background:#F5F5F5;" version="1.1" viewBox="0 0 553 610" width="553px" zoomAndPan="magnify"><defs/><g><rect fill="#F5F5F5" height="610" style="stroke:none;stroke-width:1.0;" width="553" x="0" y="0"/><rect fill="#FFFFFF" height="355.8594" style="stroke:#181818;stroke-width:1.0;" width="10" x="284.5" y="155.5625"/><line style="stroke:#181818;stroke-width:0.5;stroke-dasharray:5.0,5.0;" x1="29" x2="29" y1="81.2969" y2="529.4219"/><line style="stroke:#181818;stroke-width:0.5;stroke-dasharray:5.0,5.0;" x1="289.5" x2="289.5" y1="81.2969" y2="529.4219"/><text fill="#272727" font-family="sans-serif" font-size="14" lengthAdjust="spacing" textLength="43" x="5" y="77.9951">Client</text><ellipse cx="29.5" cy="13.5" fill="#F5F5F5" rx="8" ry="8" style="stroke:#38D430;stroke-width:0.5;"/><path d="M29.5,21.5 L29.5,48.5 M16.5,29.5 L42.5,29.5 M29.5,48.5 L16.5,63.5 M29.5,48.5 L42.5,63.5 " fill="none" style="stroke:#38D430;stroke-width:0.5;"/><text fill="#272727" font-family="sans-serif" font-size="14" lengthAdjust="spacing" textLength="43" x="5" y="541.417">Client</text><ellipse cx="29.5" cy="553.2188" fill="#F5F5F5" rx="8" ry="8" style="stroke:#38D430;stroke-width:0.5;"/><path d="M29.5,561.2188 L29.5,588.2188 M16.5,569.2188 L42.5,569.2188 M29.5,588.2188 L16.5,603.2188 M29.5,588.2188 L42.5,603.2188 " fill="none" style="stroke:#38D430;stroke-width:0.5;"/><rect fill="#F5F5F5" height="32.625" rx="2.5" ry="2.5" style="stroke:#38D430;stroke-width:2.0;" width="182" x="198.5" y="47.6719"/><text fill="#272727" font-family="sans-serif" font-size="16" font-weight="bold" lengthAdjust="spacing" textLength="168" x="205.5" y="69.5234">Software Provider</text><rect fill="#F5F5F5" height="32.625" rx="2.5" ry="2.5" style="stroke:#38D430;stroke-width:2.0;" width="182" x="198.5" y="528.4219"/><text fill="#272727" font-family="sans-serif" font-size="16" font-weight="bold" lengthAdjust="spacing" textLength="168" x="205.5" y="550.2734">Software Provider</text><rect fill="#FFFFFF" height="355.8594" style="stroke:#181818;stroke-width:1.0;" width="10" x="284.5" y="155.5625"/><rect fill="#F5F5F5" height="3" style="stroke:#F5F5F5;stroke-width:1.0;" width="546" x="0" y="111.8633"/><line style="stroke:#38D430;stroke-width:1.0;" x1="0" x2="546" y1="111.8633" y2="111.8633"/><line style="stroke:#38D430;stroke-width:1.0;" x1="0" x2="546" y1="114.8633" y2="114.8633"/><rect fill="#F5F5F5" height="23.1328" style="stroke:#38D430;stroke-width:2.0;" width="176" x="185" y="101.2969"/><text fill="#272727" font-family="sans-serif" font-size="13" font-weight="bold" lengthAdjust="spacing" textLength="157" x="191" y="117.3638">Hardware Evaluation</text><polygon fill="#272727" points="272.5,151.5625,282.5,155.5625,272.5,159.5625,276.5,155.5625" style="stroke:#272727;stroke-width:1.0;"/><line style="stroke:#272727;stroke-width:1.0;" x1="29.5" x2="278.5" y1="155.5625" y2="155.5625"/><text fill="#272727" font-family="sans-serif" font-size="13" lengthAdjust="spacing" textLength="224" x="36.5" y="150.4966">Provides hardware for assessment</text><path d="M299,168.5625 L299,268.5625 L541,268.5625 L541,178.5625 L531,168.5625 L299,168.5625 " fill="#F5F5F5" style="stroke:#38D430;stroke-width:0.5;"/><path d="M531,168.5625 L531,178.5625 L541,178.5625 L531,168.5625 " fill="#F5F5F5" style="stroke:#38D430;stroke-width:0.5;"/><text fill="#272727" font-family="sans-serif" font-size="13" lengthAdjust="spacing" textLength="89" x="305" y="185.6294">Evaluation of:</text><text fill="#272727" font-family="sans-serif" font-size="13" lengthAdjust="spacing" textLength="212" x="305" y="200.7622">- TXE Secure Boot status register</text><text fill="#272727" font-family="sans-serif" font-size="13" lengthAdjust="spacing" textLength="192" x="305" y="215.895">- FPF and associated registers</text><text fill="#272727" font-family="sans-serif" font-size="13" lengthAdjust="spacing" textLength="164" x="305" y="231.0278">- FPF emulation capability</text><text fill="#272727" font-family="sans-serif" font-size="13" lengthAdjust="spacing" textLength="157" x="305" y="246.1606">- fTPM application in TXE</text><text fill="#272727" font-family="sans-serif" font-size="13" lengthAdjust="spacing" textLength="221" x="305" y="261.2935">- Other hardware-specific features</text><rect fill="#F5F5F5" height="3" style="stroke:#F5F5F5;stroke-width:1.0;" width="546" x="0" y="294.9258"/><line style="stroke:#38D430;stroke-width:1.0;" x1="0" x2="546" y1="294.9258" y2="294.9258"/><line style="stroke:#38D430;stroke-width:1.0;" x1="0" x2="546" y1="297.9258" y2="297.9258"/><rect fill="#F5F5F5" height="23.1328" style="stroke:#38D430;stroke-width:2.0;" width="198" x="174" y="284.3594"/><text fill="#272727" font-family="sans-serif" font-size="13" font-weight="bold" lengthAdjust="spacing" textLength="179" x="180" y="300.4263">Deliverable Preparation</text><path d="M299,322.4922 L299,362.4922 L495,362.4922 L495,332.4922 L485,322.4922 L299,322.4922 " fill="#F5F5F5" style="stroke:#38D430;stroke-width:0.5;"/><path d="M485,322.4922 L485,332.4922 L495,332.4922 L485,322.4922 " fill="#F5F5F5" style="stroke:#38D430;stroke-width:0.5;"/><text fill="#272727" font-family="sans-serif" font-size="13" lengthAdjust="spacing" textLength="175" x="305" y="339.5591">Prepare Dasharo TrustRoot</text><text fill="#272727" font-family="sans-serif" font-size="13" lengthAdjust="spacing" textLength="126" x="305" y="354.6919">Assessment Report</text><path d="M299,372.7578 L299,412.7578 L498,412.7578 L498,382.7578 L488,372.7578 L299,372.7578 " fill="#F5F5F5" style="stroke:#38D430;stroke-width:0.5;"/><path d="M488,372.7578 L488,382.7578 L498,382.7578 L488,372.7578 " fill="#F5F5F5" style="stroke:#38D430;stroke-width:0.5;"/><text fill="#272727" font-family="sans-serif" font-size="13" lengthAdjust="spacing" textLength="178" x="305" y="389.8247">Develop Dasharo TrustRoot</text><text fill="#272727" font-family="sans-serif" font-size="13" lengthAdjust="spacing" textLength="132" x="305" y="404.9575">Implementation Plan</text><rect fill="#F5F5F5" height="3" style="stroke:#F5F5F5;stroke-width:1.0;" width="546" x="0" y="438.5898"/><line style="stroke:#38D430;stroke-width:1.0;" x1="0" x2="546" y1="438.5898" y2="438.5898"/><line style="stroke:#38D430;stroke-width:1.0;" x1="0" x2="546" y1="441.5898" y2="441.5898"/><rect fill="#F5F5F5" height="23.1328" style="stroke:#38D430;stroke-width:2.0;" width="207" x="169.5" y="428.0234"/><text fill="#272727" font-family="sans-serif" font-size="13" font-weight="bold" lengthAdjust="spacing" textLength="188" x="175.5" y="444.0903">Deliverable Presentation</text><polygon fill="#272727" points="40.5,478.2891,30.5,482.2891,40.5,486.2891,36.5,482.2891" style="stroke:#272727;stroke-width:1.0;"/><line style="stroke:#272727;stroke-width:1.0;" x1="34.5" x2="283.5" y1="482.2891" y2="482.2891"/><text fill="#272727" font-family="sans-serif" font-size="13" lengthAdjust="spacing" textLength="231" x="46.5" y="477.2231">Delivers Dasharo TrustRoot Reports</text><polygon fill="#272727" points="277.5,507.4219,287.5,511.4219,277.5,515.4219,281.5,511.4219" style="stroke:#272727;stroke-width:1.0;"/><line style="stroke:#272727;stroke-width:1.0;" x1="29.5" x2="283.5" y1="511.4219" y2="511.4219"/><text fill="#272727" font-family="sans-serif" font-size="13" lengthAdjust="spacing" textLength="157" x="36.5" y="506.356">Implementation decision</text><!--SRC=[jPDVRzem5CNVyobkopDIWVqJ4fEWb6rIjqM5XptqnTWtS8MnCzkXwwP-zza9oTBYeBuiUOdoE_USwslxGc162k5QIsq6q1jz46z6Lyb5-_SGUiFtuNt-UmIzx6ruayJkIENCi3tyIS0_SynO8Tr2ArTAZpubcp6-snXTAD52en9DZT4F9mLJxhIPQIFGjDYWnSuu1Xvj8sN64QUSATVXtLPq9xHKqPnRol3MpwmZfC7T2KlyMQ3Y-CdZlCFckUQLNl7jqRywCWBfTlOqwlTDktEBAt4yBw2evOgSx2ggM7TUoQEkSpgGTpnJMolYoKTwultKlXxsEF_wdlodpEOolUxWfam8KXiONiMlncfBVAVGMXZ6ploIVYCCtaMHUvG8Qor5c0CBjn6k9Q5oIVvF2PTBdRa7PX1IeyibNGApi4oJP3A1pyo84juSc2oO8wrWCaag7-X_z3eOrvKMjhKyys7CMj_tFWI6U3emXy5N-SC5XZPR1pgh35hkEXlVgpwiVjpu6yCBxpNJse5rp1KM36x8EZH1iaWNm9G8EPgJDnSDjZN7VI4hNyvojYP9xZ6mR9L-1PRdadY5ION8WBwxBPfc9NsR8wUCE6JeEp1emrZcAEc0Xgrb61k60rQF9hAwIe4mPzRRQbYPmhexlwfxDMrc17UOQ-DYzNCyeDHvhFxBFfSOoglyL3ALH1gqZS9tw3tznXstS5nBxQdziINxShjVX0e_8Ei_4e6jRVuB]--></g><script xmlns="" id="bw-fido2-page-script"/></svg>