<?xml version="1.0" encoding="windows-1252" standalone="no"?>
<svg xmlns="http://www.w3.org/2000/svg" xmlns:xlink="http://www.w3.org/1999/xlink" contentStyleType="text/css" height="731px" preserveAspectRatio="none" style="width:762px;height:731px;background:#F5F5F5;" version="1.1" viewBox="0 0 762 731" width="762px" zoomAndPan="magnify"><defs/><g><rect fill="#F5F5F5" height="731" style="stroke:none;stroke-width:1.0;" width="762" x="0" y="0"/><line style="stroke:#181818;stroke-width:0.5;stroke-dasharray:5.0,5.0;" x1="73" x2="73" y1="81.2969" y2="650.8203"/><line style="stroke:#181818;stroke-width:0.5;stroke-dasharray:5.0,5.0;" x1="386.5" x2="386.5" y1="81.2969" y2="650.8203"/><line style="stroke:#181818;stroke-width:0.5;stroke-dasharray:5.0,5.0;" x1="632.5" x2="632.5" y1="81.2969" y2="650.8203"/><text fill="#272727" font-family="sans-serif" font-size="14" lengthAdjust="spacing" textLength="43" x="49" y="77.9951">Client</text><ellipse cx="73.5" cy="13.5" fill="#F5F5F5" rx="8" ry="8" style="stroke:#38D430;stroke-width:0.5;"/><path d="M73.5,21.5 L73.5,48.5 M60.5,29.5 L86.5,29.5 M73.5,48.5 L60.5,63.5 M73.5,48.5 L86.5,63.5 " fill="none" style="stroke:#38D430;stroke-width:0.5;"/><text fill="#272727" font-family="sans-serif" font-size="14" lengthAdjust="spacing" textLength="43" x="49" y="662.8154">Client</text><ellipse cx="73.5" cy="674.6172" fill="#F5F5F5" rx="8" ry="8" style="stroke:#38D430;stroke-width:0.5;"/><path d="M73.5,682.6172 L73.5,709.6172 M60.5,690.6172 L86.5,690.6172 M73.5,709.6172 L60.5,724.6172 M73.5,709.6172 L86.5,724.6172 " fill="none" style="stroke:#38D430;stroke-width:0.5;"/><rect fill="#F5F5F5" height="51.25" rx="2.5" ry="2.5" style="stroke:#38D430;stroke-width:2.0;" width="196" x="288.5" y="29.0469"/><text fill="#272727" font-family="sans-serif" font-size="16" font-weight="bold" lengthAdjust="spacing" textLength="144" x="314.5" y="50.8984">Contact Person</text><text fill="#272727" font-family="sans-serif" font-size="16" font-weight="bold" lengthAdjust="spacing" textLength="182" x="295.5" y="69.5234">(Software Provider)</text><rect fill="#F5F5F5" height="51.25" rx="2.5" ry="2.5" style="stroke:#38D430;stroke-width:2.0;" width="196" x="288.5" y="649.8203"/><text fill="#272727" font-family="sans-serif" font-size="16" font-weight="bold" lengthAdjust="spacing" textLength="144" x="314.5" y="671.6719">Contact Person</text><text fill="#272727" font-family="sans-serif" font-size="16" font-weight="bold" lengthAdjust="spacing" textLength="182" x="295.5" y="690.2969">(Software Provider)</text><rect fill="#F5F5F5" height="51.25" rx="2.5" ry="2.5" style="stroke:#38D430;stroke-width:2.0;" width="196" x="534.5" y="29.0469"/><text fill="#272727" font-family="sans-serif" font-size="16" font-weight="bold" lengthAdjust="spacing" textLength="74" x="595.5" y="50.8984">Founder</text><text fill="#272727" font-family="sans-serif" font-size="16" font-weight="bold" lengthAdjust="spacing" textLength="182" x="541.5" y="69.5234">(Software Provider)</text><rect fill="#F5F5F5" height="51.25" rx="2.5" ry="2.5" style="stroke:#38D430;stroke-width:2.0;" width="196" x="534.5" y="649.8203"/><text fill="#272727" font-family="sans-serif" font-size="16" font-weight="bold" lengthAdjust="spacing" textLength="74" x="595.5" y="671.6719">Founder</text><text fill="#272727" font-family="sans-serif" font-size="16" font-weight="bold" lengthAdjust="spacing" textLength="182" x="541.5" y="690.2969">(Software Provider)</text><rect fill="#F5F5F5" height="3" style="stroke:#F5F5F5;stroke-width:1.0;" width="755.5" x="0" y="111.8633"/><line style="stroke:#38D430;stroke-width:1.0;" x1="0" x2="755.5" y1="111.8633" y2="111.8633"/><line style="stroke:#38D430;stroke-width:1.0;" x1="0" x2="755.5" y1="114.8633" y2="114.8633"/><rect fill="#F5F5F5" height="23.1328" style="stroke:#38D430;stroke-width:2.0;" width="191" x="282.25" y="101.2969"/><text fill="#272727" font-family="sans-serif" font-size="13" font-weight="bold" lengthAdjust="spacing" textLength="172" x="288.25" y="117.3638">Workshop Preparation</text><polygon fill="#272727" points="374.5,151.5625,384.5,155.5625,374.5,159.5625,378.5,155.5625" style="stroke:#272727;stroke-width:1.0;"/><line style="stroke:#272727;stroke-width:1.0;" x1="73.5" x2="380.5" y1="155.5625" y2="155.5625"/><text fill="#272727" font-family="sans-serif" font-size="13" lengthAdjust="spacing" textLength="190" x="80.5" y="150.4966">Confirm Workshop Objectives</text><polygon fill="#272727" points="620.5,180.6953,630.5,184.6953,620.5,188.6953,624.5,184.6953" style="stroke:#272727;stroke-width:1.0;"/><line style="stroke:#272727;stroke-width:1.0;" x1="386.5" x2="626.5" y1="184.6953" y2="184.6953"/><text fill="#272727" font-family="sans-serif" font-size="13" lengthAdjust="spacing" textLength="191" x="393.5" y="179.6294">Coordinate Workshop Agenda</text><rect fill="#F5F5F5" height="3" style="stroke:#F5F5F5;stroke-width:1.0;" width="755.5" x="0" y="213.2617"/><line style="stroke:#38D430;stroke-width:1.0;" x1="0" x2="755.5" y1="213.2617" y2="213.2617"/><line style="stroke:#38D430;stroke-width:1.0;" x1="0" x2="755.5" y1="216.2617" y2="216.2617"/><rect fill="#F5F5F5" height="23.1328" style="stroke:#38D430;stroke-width:2.0;" width="174" x="290.75" y="202.6953"/><text fill="#272727" font-family="sans-serif" font-size="13" font-weight="bold" lengthAdjust="spacing" textLength="155" x="296.75" y="218.7622">Workshop Execution</text><path d="M5,240.8281 L5,265.8281 L701,265.8281 L701,250.8281 L691,240.8281 L5,240.8281 " fill="#F5F5F5" style="stroke:#38D430;stroke-width:0.5;"/><path d="M691,240.8281 L691,250.8281 L701,250.8281 L691,240.8281 " fill="#F5F5F5" style="stroke:#38D430;stroke-width:0.5;"/><text fill="#272727" font-family="sans-serif" font-size="13" lengthAdjust="spacing" textLength="163" x="267.25" y="257.895">Workshop Session Begins</text><path d="M5,275.9609 L5,375.9609 L701,375.9609 L701,285.9609 L691,275.9609 L5,275.9609 " fill="#F5F5F5" style="stroke:#38D430;stroke-width:0.5;"/><path d="M691,275.9609 L691,285.9609 L701,285.9609 L691,275.9609 " fill="#F5F5F5" style="stroke:#38D430;stroke-width:0.5;"/><text fill="#272727" font-family="sans-serif" font-size="13" lengthAdjust="spacing" textLength="187" x="206.75" y="293.0278">- Product Result Presentation</text><text fill="#272727" font-family="sans-serif" font-size="13" lengthAdjust="spacing" textLength="284" x="206.75" y="308.1606">- Discussion on Product Scenarios and Paths</text><text fill="#272727" font-family="sans-serif" font-size="13" lengthAdjust="spacing" textLength="262" x="206.75" y="323.2935">- Infrastructure and Hardware Discussion</text><text fill="#272727" font-family="sans-serif" font-size="13" lengthAdjust="spacing" textLength="186" x="206.75" y="338.4263">- Boot Process Best Practices</text><text fill="#272727" font-family="sans-serif" font-size="13" lengthAdjust="spacing" textLength="111" x="206.75" y="353.5591">- Threat Modeling</text><text fill="#272727" font-family="sans-serif" font-size="13" lengthAdjust="spacing" textLength="238" x="206.75" y="368.6919">- Business Relationship Development</text><polygon fill="#272727" points="620.5,398.8906,630.5,402.8906,620.5,406.8906,624.5,402.8906" style="stroke:#272727;stroke-width:1.0;"/><line style="stroke:#272727;stroke-width:1.0;" x1="73.5" x2="626.5" y1="402.8906" y2="402.8906"/><text fill="#272727" font-family="sans-serif" font-size="13" lengthAdjust="spacing" textLength="233" x="80.5" y="397.8247">Interactive Discussion and Feedback</text><polygon fill="#272727" points="84.5,428.0234,74.5,432.0234,84.5,436.0234,80.5,432.0234" style="stroke:#272727;stroke-width:1.0;"/><line style="stroke:#272727;stroke-width:1.0;" x1="78.5" x2="631.5" y1="432.0234" y2="432.0234"/><text fill="#272727" font-family="sans-serif" font-size="13" lengthAdjust="spacing" textLength="147" x="90.5" y="426.9575">Provide Expert Insights</text><polygon fill="#272727" points="84.5,457.1563,74.5,461.1563,84.5,465.1563,80.5,461.1563" style="stroke:#272727;stroke-width:1.0;"/><line style="stroke:#272727;stroke-width:1.0;" x1="78.5" x2="385.5" y1="461.1563" y2="461.1563"/><text fill="#272727" font-family="sans-serif" font-size="13" lengthAdjust="spacing" textLength="225" x="90.5" y="456.0903">Further Discussion and Clarification</text><rect fill="#F5F5F5" height="3" style="stroke:#F5F5F5;stroke-width:1.0;" width="755.5" x="0" y="489.7227"/><line style="stroke:#38D430;stroke-width:1.0;" x1="0" x2="755.5" y1="489.7227" y2="489.7227"/><line style="stroke:#38D430;stroke-width:1.0;" x1="0" x2="755.5" y1="492.7227" y2="492.7227"/><rect fill="#F5F5F5" height="23.1328" style="stroke:#38D430;stroke-width:2.0;" width="181" x="287.25" y="479.1563"/><text fill="#272727" font-family="sans-serif" font-size="13" font-weight="bold" lengthAdjust="spacing" textLength="162" x="293.25" y="495.2231">Workshop Conclusion</text><path d="M5,517.2891 L5,542.2891 L455,542.2891 L455,527.2891 L445,517.2891 L5,517.2891 " fill="#F5F5F5" style="stroke:#38D430;stroke-width:0.5;"/><path d="M445,517.2891 L445,527.2891 L455,527.2891 L445,517.2891 " fill="#F5F5F5" style="stroke:#38D430;stroke-width:0.5;"/><text fill="#272727" font-family="sans-serif" font-size="13" lengthAdjust="spacing" textLength="194" x="128.75" y="534.356">Focused Collaboration Session</text><polygon fill="#272727" points="84.5,564.5547,74.5,568.5547,84.5,572.5547,80.5,568.5547" style="stroke:#272727;stroke-width:1.0;"/><line style="stroke:#272727;stroke-width:1.0;" x1="78.5" x2="385.5" y1="568.5547" y2="568.5547"/><text fill="#272727" font-family="sans-serif" font-size="13" lengthAdjust="spacing" textLength="289" x="90.5" y="563.4888">Summarize Workshop and Define Next Steps</text><polygon fill="#272727" points="374.5,593.6875,384.5,597.6875,374.5,601.6875,378.5,597.6875" style="stroke:#272727;stroke-width:1.0;"/><line style="stroke:#272727;stroke-width:1.0;" x1="73.5" x2="380.5" y1="597.6875" y2="597.6875"/><text fill="#272727" font-family="sans-serif" font-size="13" lengthAdjust="spacing" textLength="256" x="80.5" y="592.6216">Provide Feedback and Acknowledgment</text><path d="M5,610.6875 L5,635.6875 L701,635.6875 L701,620.6875 L691,610.6875 L5,610.6875 " fill="#F5F5F5" style="stroke:#38D430;stroke-width:0.5;"/><path d="M691,610.6875 L691,620.6875 L701,620.6875 L691,610.6875 " fill="#F5F5F5" style="stroke:#38D430;stroke-width:0.5;"/><text fill="#272727" font-family="sans-serif" font-size="13" lengthAdjust="spacing" textLength="152" x="272.75" y="627.7544">Workshop Session Ends</text><!--SRC=[jLLRRzem57xFht3BooQjKe7TL8b9KCfMgUjGgRINlPZuX7WOdynsQDTf_tt7JW9XTQhkOOI79D_b79yB70d8f0PsZWfDd_M6xyNhuMbor7uzOBt1EtyTlXwoNlR6NqbYrr8NtF0D-vKm-amXuwLoCzGkK6kVW4rukbuPBBLeGSC0ZOt1kqU2SUhGJD08C2sityAUSFHuD8qvDqwcik3QTNYt6TqHMgned2kPmHNLh2F83kwEi80V9UWKFX9STDWSSfxf5MyFtdV4y4YtCw5HlsjqJnqkmF5u7efQtagdkaGLrXqlu57NgTnASdn2sp3YaMlqaVVlzdhOklxDdlodcBjbUjxWphaGKg_Ou3I-6hUvJDSQh6M3sCmlv0Em_jiev7ugO4jKmjU1-sran-TAWdR7Z5jMtIR5NaKmwOZ9vc0iwc_wnG8pTySDiBd1SDwNbRRY7Ofd_gnWkbKr8Kb68_OLpThcM105V7-SHCr6ewJAYfryQ6AmCt-NIRFPQxuilqFgv1Piqh18KDi70TLEQkvWhnclG0j-6FlY7jAoYQnfvXbkoQ3AuLNBSATOK2SyVm8hgMstXXfouaylIihj1Ypz8lkJMkA4emPyAcrQLdxqRTYB53Gt4YtZMb1JNMu3-r9dXbjdY5DIQJtuYHiHwhnt2jG9eW-7gP-R2LZ_G4MIz1pmszm0T-mp2b0qV9Mcj3BCsGseaABDPK7_9bjGM6pyf53zc3zmgqVx2brg1o76jfrDo78689Qq34d3zisjBCwQ2Q5M560SsLYvojr1NtVSMMbSJlg__CyLbIkJQLNOWmQJIwfAszdX_OpDa2n1-2rLV8drGDRjZcQpA3SR2lpGcZ6VpRJwcxw6UsgbWy96HxevTbER81tJfkET0h4AzVwdWRpGmlu1]--></g><script xmlns="" id="bw-fido2-page-script"/></svg>