<?xml version="1.0" encoding="windows-1252" standalone="no"?>
<svg xmlns="http://www.w3.org/2000/svg" xmlns:xlink="http://www.w3.org/1999/xlink" contentStyleType="text/css" height="677px" preserveAspectRatio="none" style="width:948px;height:677px;background:#F5F5F5;" version="1.1" viewBox="0 0 948 677" width="948px" zoomAndPan="magnify"><defs/><g><rect fill="#F5F5F5" height="677" style="stroke:none;stroke-width:1.0;" width="948" x="0" y="0"/><text fill="#272727" font-family="sans-serif" font-size="14" font-weight="bold" lengthAdjust="spacing" textLength="444" x="248" y="27.9951">Dasharo Support Models: Dasharo Community Support</text><line style="stroke:#181818;stroke-width:0.5;stroke-dasharray:5.0,5.0;" x1="43" x2="43" y1="118.5938" y2="597.0469"/><line style="stroke:#181818;stroke-width:0.5;stroke-dasharray:5.0,5.0;" x1="123" x2="123" y1="118.5938" y2="597.0469"/><line style="stroke:#181818;stroke-width:0.5;stroke-dasharray:5.0,5.0;" x1="245" x2="245" y1="118.5938" y2="597.0469"/><line style="stroke:#181818;stroke-width:0.5;stroke-dasharray:5.0,5.0;" x1="455" x2="455" y1="118.5938" y2="597.0469"/><line style="stroke:#181818;stroke-width:0.5;stroke-dasharray:5.0,5.0;" x1="675" x2="675" y1="118.5938" y2="597.0469"/><text fill="#272727" font-family="sans-serif" font-size="14" lengthAdjust="spacing" textLength="70" x="5" y="115.292">Customer</text><ellipse cx="43" cy="50.7969" fill="#38D430" rx="8" ry="8" style="stroke:#181818;stroke-width:0.5;"/><path d="M43,58.7969 L43,85.7969 M30,66.7969 L56,66.7969 M43,85.7969 L30,100.7969 M43,85.7969 L56,100.7969 " fill="none" style="stroke:#181818;stroke-width:0.5;"/><text fill="#272727" font-family="sans-serif" font-size="14" lengthAdjust="spacing" textLength="70" x="5" y="609.042">Customer</text><ellipse cx="43" cy="620.8438" fill="#38D430" rx="8" ry="8" style="stroke:#181818;stroke-width:0.5;"/><path d="M43,628.8438 L43,655.8438 M30,636.8438 L56,636.8438 M43,655.8438 L30,670.8438 M43,655.8438 L56,670.8438 " fill="none" style="stroke:#181818;stroke-width:0.5;"/><text fill="#272727" font-family="sans-serif" font-size="14" lengthAdjust="spacing" textLength="59" x="91" y="115.292">Sponsor</text><ellipse cx="123.5" cy="50.7969" fill="#38D430" rx="8" ry="8" style="stroke:#181818;stroke-width:0.5;"/><path d="M123.5,58.7969 L123.5,85.7969 M110.5,66.7969 L136.5,66.7969 M123.5,85.7969 L110.5,100.7969 M123.5,85.7969 L136.5,100.7969 " fill="none" style="stroke:#181818;stroke-width:0.5;"/><text fill="#272727" font-family="sans-serif" font-size="14" lengthAdjust="spacing" textLength="59" x="91" y="609.042">Sponsor</text><ellipse cx="123.5" cy="620.8438" fill="#38D430" rx="8" ry="8" style="stroke:#181818;stroke-width:0.5;"/><path d="M123.5,628.8438 L123.5,655.8438 M110.5,636.8438 L136.5,636.8438 M123.5,655.8438 L110.5,670.8438 M123.5,655.8438 L136.5,670.8438 " fill="none" style="stroke:#181818;stroke-width:0.5;"/><rect fill="#38D430" height="30.2969" rx="2.5" ry="2.5" style="stroke:#181818;stroke-width:0.5;" width="159" x="166" y="87.2969"/><text fill="#272727" font-family="sans-serif" font-size="14" font-weight="bold" lengthAdjust="spacing" textLength="145" x="173" y="107.292">NLNet Foundation</text><rect fill="#38D430" height="30.2969" rx="2.5" ry="2.5" style="stroke:#181818;stroke-width:0.5;" width="159" x="166" y="596.0469"/><text fill="#272727" font-family="sans-serif" font-size="14" font-weight="bold" lengthAdjust="spacing" textLength="145" x="173" y="616.042">NLNet Foundation</text><rect fill="#38D430" height="30.2969" rx="2.5" ry="2.5" style="stroke:#181818;stroke-width:0.5;" width="241" x="335" y="87.2969"/><text fill="#272727" font-family="sans-serif" font-size="14" font-weight="bold" lengthAdjust="spacing" textLength="227" x="342" y="107.292">Technology Commons Trust</text><rect fill="#38D430" height="30.2969" rx="2.5" ry="2.5" style="stroke:#181818;stroke-width:0.5;" width="241" x="335" y="596.0469"/><text fill="#272727" font-family="sans-serif" font-size="14" font-weight="bold" lengthAdjust="spacing" textLength="227" x="342" y="616.042">Technology Commons Trust</text><rect fill="#38D430" height="46.5938" rx="2.5" ry="2.5" style="stroke:#181818;stroke-width:0.5;" width="178" x="586" y="71"/><text fill="#272727" font-family="sans-serif" font-size="14" font-weight="bold" lengthAdjust="spacing" textLength="54" x="648" y="90.9951">3mdeb</text><text fill="#272727" font-family="sans-serif" font-size="14" font-weight="bold" lengthAdjust="spacing" textLength="164" x="593" y="107.292">(aka Dasharo Team)</text><rect fill="#38D430" height="46.5938" rx="2.5" ry="2.5" style="stroke:#181818;stroke-width:0.5;" width="178" x="586" y="596.0469"/><text fill="#272727" font-family="sans-serif" font-size="14" font-weight="bold" lengthAdjust="spacing" textLength="54" x="648" y="616.042">3mdeb</text><text fill="#272727" font-family="sans-serif" font-size="14" font-weight="bold" lengthAdjust="spacing" textLength="164" x="593" y="632.3389">(aka Dasharo Team)</text><rect fill="#EEEEEE" height="3" style="stroke:#EEEEEE;stroke-width:1.0;" width="941" x="0" y="149.7422"/><line style="stroke:#000000;stroke-width:1.0;" x1="0" x2="941" y1="149.7422" y2="149.7422"/><line style="stroke:#000000;stroke-width:1.0;" x1="0" x2="941" y1="152.7422" y2="152.7422"/><rect fill="#EEEEEE" height="24.2969" style="stroke:#000000;stroke-width:2.0;" width="225" x="358" y="138.5938"/><text fill="#272727" font-family="sans-serif" font-size="14" font-weight="bold" lengthAdjust="spacing" textLength="206" x="364" y="155.5889">Planned Dasharo Support</text><polygon fill="#38D430" points="663,226.7813,673,230.7813,663,234.7813,667,230.7813" style="stroke:#38D430;stroke-width:1.0;"/><line style="stroke:#38D430;stroke-width:1.0;" x1="43" x2="669" y1="230.7813" y2="230.7813"/><text fill="#272727" font-family="sans-serif" font-size="14" lengthAdjust="spacing" textLength="276" x="50" y="225.4795">Buys Dasharo Entry Subscription (DES)</text><path d="M680,177.8906 L680,268.8906 L931,268.8906 L931,187.8906 L921,177.8906 L680,177.8906 " fill="#FEFFDD" style="stroke:#181818;stroke-width:0.5;"/><path d="M921,177.8906 L921,187.8906 L931,187.8906 L921,177.8906 " fill="#FEFFDD" style="stroke:#181818;stroke-width:0.5;"/><text fill="#272727" font-family="sans-serif" font-size="14" lengthAdjust="spacing" textLength="217" x="686" y="195.8857">Just a newsletter subscription,</text><text fill="#272727" font-family="sans-serif" font-size="14" lengthAdjust="spacing" textLength="177" x="686" y="212.1826">which gives notifications</text><text fill="#272727" font-family="sans-serif" font-size="14" lengthAdjust="spacing" textLength="162" x="686" y="228.4795">and access to binaries,</text><text fill="#272727" font-family="sans-serif" font-size="14" lengthAdjust="spacing" textLength="230" x="686" y="244.7764">if/when DCS release for planned</text><text fill="#272727" font-family="sans-serif" font-size="14" lengthAdjust="spacing" textLength="206" x="686" y="261.0732">hardware would be available.</text><line style="stroke:#38D430;stroke-width:1.0;" x1="675" x2="717" y1="296.6719" y2="296.6719"/><line style="stroke:#38D430;stroke-width:1.0;" x1="717" x2="717" y1="296.6719" y2="309.6719"/><line style="stroke:#38D430;stroke-width:1.0;" x1="676" x2="717" y1="309.6719" y2="309.6719"/><polygon fill="#38D430" points="686,305.6719,676,309.6719,686,313.6719,682,309.6719" style="stroke:#38D430;stroke-width:1.0;"/><text fill="#272727" font-family="sans-serif" font-size="14" lengthAdjust="spacing" textLength="103" x="682" y="291.3701">Collect founds</text><rect fill="#EEEEEE" height="3" style="stroke:#EEEEEE;stroke-width:1.0;" width="941" x="0" y="338.8203"/><line style="stroke:#000000;stroke-width:1.0;" x1="0" x2="941" y1="338.8203" y2="338.8203"/><line style="stroke:#000000;stroke-width:1.0;" x1="0" x2="941" y1="341.8203" y2="341.8203"/><rect fill="#EEEEEE" height="24.2969" style="stroke:#000000;stroke-width:2.0;" width="272" x="334.5" y="327.6719"/><text fill="#272727" font-family="sans-serif" font-size="14" font-weight="bold" lengthAdjust="spacing" textLength="253" x="340.5" y="344.667">Crypto-sponsored development</text><polygon fill="#38D430" points="443.5,380.2656,453.5,384.2656,443.5,388.2656,447.5,384.2656" style="stroke:#38D430;stroke-width:1.0;"/><line style="stroke:#38D430;stroke-width:1.0;" x1="123.5" x2="449.5" y1="384.2656" y2="384.2656"/><text fill="#272727" font-family="sans-serif" font-size="14" lengthAdjust="spacing" textLength="279" x="130.5" y="378.9639">"Anonymous" cryptocurrency donation</text><polygon fill="#38D430" points="256.5,410.5625,246.5,414.5625,256.5,418.5625,252.5,414.5625" style="stroke:#38D430;stroke-width:1.0;"/><line style="stroke:#38D430;stroke-width:1.0;" x1="250.5" x2="454.5" y1="414.5625" y2="414.5625"/><text fill="#272727" font-family="sans-serif" font-size="14" lengthAdjust="spacing" textLength="117" x="262.5" y="409.2607">Founds available</text><rect fill="#EEEEEE" height="3" style="stroke:#EEEEEE;stroke-width:1.0;" width="941" x="0" y="443.7109"/><line style="stroke:#000000;stroke-width:1.0;" x1="0" x2="941" y1="443.7109" y2="443.7109"/><line style="stroke:#000000;stroke-width:1.0;" x1="0" x2="941" y1="446.7109" y2="446.7109"/><rect fill="#EEEEEE" height="24.2969" style="stroke:#000000;stroke-width:2.0;" width="271" x="335" y="432.5625"/><text fill="#272727" font-family="sans-serif" font-size="14" font-weight="bold" lengthAdjust="spacing" textLength="247" x="341" y="449.5576">NLNet-sponsored development</text><polygon fill="#38D430" points="256.5,485.1563,246.5,489.1563,256.5,493.1563,252.5,489.1563" style="stroke:#38D430;stroke-width:1.0;"/><line style="stroke:#38D430;stroke-width:1.0;" x1="250.5" x2="674" y1="489.1563" y2="489.1563"/><text fill="#272727" font-family="sans-serif" font-size="14" lengthAdjust="spacing" textLength="171" x="262.5" y="483.8545">Sends grant application</text><polygon fill="#38D430" points="663,515.4531,673,519.4531,663,523.4531,667,519.4531" style="stroke:#38D430;stroke-width:1.0;"/><line style="stroke:#38D430;stroke-width:1.0;" x1="245.5" x2="669" y1="519.4531" y2="519.4531"/><text fill="#272727" font-family="sans-serif" font-size="14" lengthAdjust="spacing" textLength="190" x="252.5" y="514.1514">Approve grant application</text><line style="stroke:#38D430;stroke-width:1.0;" x1="675" x2="717" y1="566.0469" y2="566.0469"/><line style="stroke:#38D430;stroke-width:1.0;" x1="717" x2="717" y1="566.0469" y2="579.0469"/><line style="stroke:#38D430;stroke-width:1.0;" x1="676" x2="717" y1="579.0469" y2="579.0469"/><polygon fill="#38D430" points="686,575.0469,676,579.0469,686,583.0469,682,579.0469" style="stroke:#38D430;stroke-width:1.0;"/><text fill="#272727" font-family="sans-serif" font-size="14" lengthAdjust="spacing" textLength="103" x="682" y="544.4482">Collect founds</text><text fill="#272727" font-family="sans-serif" font-size="14" lengthAdjust="spacing" textLength="150" x="682" y="560.7451">after each milestone</text><!--SRC=[ZPHTJzim58Rl_IiEvOPLOrifqwPAdLG2N4o0aDBTSNEQd2OMZktPJglkr-yuJMaefKMvYlsyx_bCJdAQIqsG66NS04w7F_FBuJTnqZs-WDEB7_5vVJo4q_dt-0ZXdwMswB021h1MuTReq42jmtuYbVy81fTT_HLcpuKpjSuxyc47kAE2TFuErk4cpfbbvtAmU_ScnGwGAFH-Rup1BdN8Pf85uuxQDDJ1R4nbZIOTZcUq8G_PFR8B5dJKhEKEMQNqjoQTqIEw83DfyGCvxj4S314m7C-reGxP_F6Ke3zkr79lhO8CYk0QVOdEG5fRQro0UvEJygENSnv0LMiPLXj228pZXQJsmLJasjUKn-ID4tRR1EZr-mzt3nJWDkQ7GHhTx_S0FJJ7k-oKib9pSiMgYSf-C7KSfTLCa-ckObZbDEltdzZs39_n9UafOVLf8oiTqJrpGep7yAXGQyhVb3qUYqr1SFvhAu8HNDKh_yBVwE1YAsO-SzB6Yk3i-YRz9BG914uMPH00lzaA43GjlQ8GsDDt59-PM9OoAw6G2_B0KZcNMTCVptUeSy0i8-yX69X9ZKwIZoev_xeiISDrae8ZHJnNc7FpxReg9ZZ9V8cEO6bgbSEC01Se5SuKVH7ycud1I6pBswcLTqDH5jYK1-PZmnAtii6S-_LukNCvBKWPM_4t6RlMphqnIgOZw4sqqQlArBu7MQFDQkVuyrX1RdHJes0myiqIZDRBuRTvngZDrJj1OzHN1RG-AKMRmiNTG6jLsr6nNi6TGYVMEhEWFVW7U_EaSHu7IyXphAGYNXvD_m40]--></g></svg>