<?xml version="1.0" encoding="windows-1252" standalone="no"?>
<svg xmlns="http://www.w3.org/2000/svg" xmlns:xlink="http://www.w3.org/1999/xlink" contentStyleType="text/css" height="720px" preserveAspectRatio="none" style="width:759px;height:720px;background:#F5F5F5;" version="1.1" viewBox="0 0 759 720" width="759px" zoomAndPan="magnify"><defs/><g><rect fill="#F5F5F5" height="720" style="stroke:none;stroke-width:1.0;" width="759" x="0" y="0"/><text fill="#272727" font-family="sans-serif" font-size="14" font-weight="bold" lengthAdjust="spacing" textLength="444" x="153.75" y="27.9951">Dasharo Support Models: Dasharo Community Support</text><line style="stroke:#181818;stroke-width:0.5;stroke-dasharray:5.0,5.0;" x1="43" x2="43" y1="118.5938" y2="639.4531"/><line style="stroke:#181818;stroke-width:0.5;stroke-dasharray:5.0,5.0;" x1="135" x2="135" y1="118.5938" y2="639.4531"/><line style="stroke:#181818;stroke-width:0.5;stroke-dasharray:5.0,5.0;" x1="272" x2="272" y1="118.5938" y2="639.4531"/><line style="stroke:#181818;stroke-width:0.5;stroke-dasharray:5.0,5.0;" x1="551.5" x2="551.5" y1="118.5938" y2="639.4531"/><text fill="#272727" font-family="sans-serif" font-size="14" lengthAdjust="spacing" textLength="70" x="5" y="115.292">Customer</text><ellipse cx="43" cy="50.7969" fill="#38D430" rx="8" ry="8" style="stroke:#181818;stroke-width:0.5;"/><path d="M43,58.7969 L43,85.7969 M30,66.7969 L56,66.7969 M43,85.7969 L30,100.7969 M43,85.7969 L56,100.7969 " fill="none" style="stroke:#181818;stroke-width:0.5;"/><text fill="#272727" font-family="sans-serif" font-size="14" lengthAdjust="spacing" textLength="70" x="5" y="651.4482">Customer</text><ellipse cx="43" cy="663.25" fill="#38D430" rx="8" ry="8" style="stroke:#181818;stroke-width:0.5;"/><path d="M43,671.25 L43,698.25 M30,679.25 L56,679.25 M43,698.25 L30,713.25 M43,698.25 L56,713.25 " fill="none" style="stroke:#181818;stroke-width:0.5;"/><text fill="#272727" font-family="sans-serif" font-size="14" lengthAdjust="spacing" textLength="83" x="91" y="115.292">Community</text><ellipse cx="135.5" cy="50.7969" fill="#38D430" rx="8" ry="8" style="stroke:#181818;stroke-width:0.5;"/><path d="M135.5,58.7969 L135.5,85.7969 M122.5,66.7969 L148.5,66.7969 M135.5,85.7969 L122.5,100.7969 M135.5,85.7969 L148.5,100.7969 " fill="none" style="stroke:#181818;stroke-width:0.5;"/><text fill="#272727" font-family="sans-serif" font-size="14" lengthAdjust="spacing" textLength="83" x="91" y="651.4482">Community</text><ellipse cx="135.5" cy="663.25" fill="#38D430" rx="8" ry="8" style="stroke:#181818;stroke-width:0.5;"/><path d="M135.5,671.25 L135.5,698.25 M122.5,679.25 L148.5,679.25 M135.5,698.25 L122.5,713.25 M135.5,698.25 L148.5,713.25 " fill="none" style="stroke:#181818;stroke-width:0.5;"/><rect fill="#38D430" height="62.8906" rx="2.5" ry="2.5" style="stroke:#181818;stroke-width:0.5;" width="165" x="190" y="54.7031"/><text fill="#272727" font-family="sans-serif" font-size="14" font-weight="bold" lengthAdjust="spacing" textLength="115" x="215" y="74.6982">Dasharo Entry</text><text fill="#272727" font-family="sans-serif" font-size="14" font-weight="bold" lengthAdjust="spacing" textLength="151" x="197" y="90.9951">Subscription (DES)</text><text fill="#272727" font-family="sans-serif" font-size="14" font-weight="bold" lengthAdjust="spacing" textLength="64" x="240.5" y="107.292">Reseller</text><rect fill="#38D430" height="62.8906" rx="2.5" ry="2.5" style="stroke:#181818;stroke-width:0.5;" width="165" x="190" y="638.4531"/><text fill="#272727" font-family="sans-serif" font-size="14" font-weight="bold" lengthAdjust="spacing" textLength="115" x="215" y="658.4482">Dasharo Entry</text><text fill="#272727" font-family="sans-serif" font-size="14" font-weight="bold" lengthAdjust="spacing" textLength="151" x="197" y="674.7451">Subscription (DES)</text><text fill="#272727" font-family="sans-serif" font-size="14" font-weight="bold" lengthAdjust="spacing" textLength="64" x="240.5" y="691.042">Reseller</text><rect fill="#38D430" height="46.5938" rx="2.5" ry="2.5" style="stroke:#181818;stroke-width:0.5;" width="178" x="462.5" y="71"/><text fill="#272727" font-family="sans-serif" font-size="14" font-weight="bold" lengthAdjust="spacing" textLength="54" x="524.5" y="90.9951">3mdeb</text><text fill="#272727" font-family="sans-serif" font-size="14" font-weight="bold" lengthAdjust="spacing" textLength="164" x="469.5" y="107.292">(aka Dasharo Team)</text><rect fill="#38D430" height="46.5938" rx="2.5" ry="2.5" style="stroke:#181818;stroke-width:0.5;" width="178" x="462.5" y="638.4531"/><text fill="#272727" font-family="sans-serif" font-size="14" font-weight="bold" lengthAdjust="spacing" textLength="54" x="524.5" y="658.4482">3mdeb</text><text fill="#272727" font-family="sans-serif" font-size="14" font-weight="bold" lengthAdjust="spacing" textLength="164" x="469.5" y="674.7451">(aka Dasharo Team)</text><rect fill="#EEEEEE" height="3" style="stroke:#EEEEEE;stroke-width:1.0;" width="752.5" x="0" y="149.7422"/><line style="stroke:#000000;stroke-width:1.0;" x1="0" x2="752.5" y1="149.7422" y2="149.7422"/><line style="stroke:#000000;stroke-width:1.0;" x1="0" x2="752.5" y1="152.7422" y2="152.7422"/><rect fill="#EEEEEE" height="24.2969" style="stroke:#000000;stroke-width:2.0;" width="257" x="247.75" y="138.5938"/><text fill="#272727" font-family="sans-serif" font-size="14" font-weight="bold" lengthAdjust="spacing" textLength="238" x="253.75" y="155.5889">Dasharo Supported Hardware</text><polygon fill="#38D430" points="539.5,191.1875,549.5,195.1875,539.5,199.1875,543.5,195.1875" style="stroke:#38D430;stroke-width:1.0;"/><line style="stroke:#38D430;stroke-width:1.0;" x1="43" x2="545.5" y1="195.1875" y2="195.1875"/><text fill="#272727" font-family="sans-serif" font-size="14" lengthAdjust="spacing" textLength="171" x="50" y="189.8857">Buys hardware with DES</text><line style="stroke:#38D430;stroke-width:1.0;" x1="551.5" x2="593.5" y1="225.4844" y2="225.4844"/><line style="stroke:#38D430;stroke-width:1.0;" x1="593.5" x2="593.5" y1="225.4844" y2="238.4844"/><line style="stroke:#38D430;stroke-width:1.0;" x1="552.5" x2="593.5" y1="238.4844" y2="238.4844"/><polygon fill="#38D430" points="562.5,234.4844,552.5,238.4844,562.5,242.4844,558.5,238.4844" style="stroke:#38D430;stroke-width:1.0;"/><text fill="#272727" font-family="sans-serif" font-size="14" lengthAdjust="spacing" textLength="103" x="558.5" y="220.1826">Collect founds</text><polygon fill="#38D430" points="260.5,264.7813,270.5,268.7813,260.5,272.7813,264.5,268.7813" style="stroke:#38D430;stroke-width:1.0;"/><line style="stroke:#38D430;stroke-width:1.0;" x1="43" x2="266.5" y1="268.7813" y2="268.7813"/><text fill="#272727" font-family="sans-serif" font-size="14" lengthAdjust="spacing" textLength="171" x="50" y="263.4795">Buys hardware with DES</text><line style="stroke:#38D430;stroke-width:1.0;" x1="272.5" x2="314.5" y1="299.0781" y2="299.0781"/><line style="stroke:#38D430;stroke-width:1.0;" x1="314.5" x2="314.5" y1="299.0781" y2="312.0781"/><line style="stroke:#38D430;stroke-width:1.0;" x1="273.5" x2="314.5" y1="312.0781" y2="312.0781"/><polygon fill="#38D430" points="283.5,308.0781,273.5,312.0781,283.5,316.0781,279.5,312.0781" style="stroke:#38D430;stroke-width:1.0;"/><text fill="#272727" font-family="sans-serif" font-size="14" lengthAdjust="spacing" textLength="127" x="279.5" y="293.7764">Collects payment</text><polygon fill="#38D430" points="539.5,338.375,549.5,342.375,539.5,346.375,543.5,342.375" style="stroke:#38D430;stroke-width:1.0;"/><line style="stroke:#38D430;stroke-width:1.0;" x1="272.5" x2="545.5" y1="342.375" y2="342.375"/><text fill="#272727" font-family="sans-serif" font-size="14" lengthAdjust="spacing" textLength="255" x="279.5" y="337.0732">Sends DES fee minus Reseller share</text><line style="stroke:#38D430;stroke-width:1.0;" x1="551.5" x2="593.5" y1="372.6719" y2="372.6719"/><line style="stroke:#38D430;stroke-width:1.0;" x1="593.5" x2="593.5" y1="372.6719" y2="385.6719"/><line style="stroke:#38D430;stroke-width:1.0;" x1="552.5" x2="593.5" y1="385.6719" y2="385.6719"/><polygon fill="#38D430" points="562.5,381.6719,552.5,385.6719,562.5,389.6719,558.5,385.6719" style="stroke:#38D430;stroke-width:1.0;"/><text fill="#272727" font-family="sans-serif" font-size="14" lengthAdjust="spacing" textLength="103" x="558.5" y="367.3701">Collect founds</text><rect fill="#EEEEEE" height="3" style="stroke:#EEEEEE;stroke-width:1.0;" width="752.5" x="0" y="414.8203"/><line style="stroke:#000000;stroke-width:1.0;" x1="0" x2="752.5" y1="414.8203" y2="414.8203"/><line style="stroke:#000000;stroke-width:1.0;" x1="0" x2="752.5" y1="417.8203" y2="417.8203"/><rect fill="#EEEEEE" height="24.2969" style="stroke:#000000;stroke-width:2.0;" width="304" x="224.25" y="403.6719"/><text fill="#272727" font-family="sans-serif" font-size="14" font-weight="bold" lengthAdjust="spacing" textLength="285" x="230.25" y="420.667">Enough founds for new DCS release</text><line style="stroke:#38D430;stroke-width:1.0;" x1="551.5" x2="593.5" y1="460.2656" y2="460.2656"/><line style="stroke:#38D430;stroke-width:1.0;" x1="593.5" x2="593.5" y1="460.2656" y2="473.2656"/><line style="stroke:#38D430;stroke-width:1.0;" x1="552.5" x2="593.5" y1="473.2656" y2="473.2656"/><polygon fill="#38D430" points="562.5,469.2656,552.5,473.2656,562.5,477.2656,558.5,473.2656" style="stroke:#38D430;stroke-width:1.0;"/><text fill="#272727" font-family="sans-serif" font-size="14" lengthAdjust="spacing" textLength="187" x="558.5" y="454.9639">Schedule new DES release</text><polygon fill="#38D430" points="54,499.5625,44,503.5625,54,507.5625,50,503.5625" style="stroke:#38D430;stroke-width:1.0;"/><line style="stroke:#38D430;stroke-width:1.0;" x1="48" x2="550.5" y1="503.5625" y2="503.5625"/><text fill="#272727" font-family="sans-serif" font-size="14" lengthAdjust="spacing" textLength="140" x="60" y="498.2607">Deliver DES release</text><rect fill="#EEEEEE" height="3" style="stroke:#EEEEEE;stroke-width:1.0;" width="752.5" x="0" y="532.7109"/><line style="stroke:#000000;stroke-width:1.0;" x1="0" x2="752.5" y1="532.7109" y2="532.7109"/><line style="stroke:#000000;stroke-width:1.0;" x1="0" x2="752.5" y1="535.7109" y2="535.7109"/><rect fill="#EEEEEE" height="24.2969" style="stroke:#000000;stroke-width:2.0;" width="105" x="323.75" y="521.5625"/><text fill="#272727" font-family="sans-serif" font-size="14" font-weight="bold" lengthAdjust="spacing" textLength="86" x="329.75" y="538.5576">&lt;= 2x/year</text><line style="stroke:#38D430;stroke-width:1.0;" x1="551.5" x2="593.5" y1="578.1563" y2="578.1563"/><line style="stroke:#38D430;stroke-width:1.0;" x1="593.5" x2="593.5" y1="578.1563" y2="591.1563"/><line style="stroke:#38D430;stroke-width:1.0;" x1="552.5" x2="593.5" y1="591.1563" y2="591.1563"/><polygon fill="#38D430" points="562.5,587.1563,552.5,591.1563,562.5,595.1563,558.5,591.1563" style="stroke:#38D430;stroke-width:1.0;"/><text fill="#272727" font-family="sans-serif" font-size="14" lengthAdjust="spacing" textLength="155" x="558.5" y="572.8545">Schedule DCS release</text><polygon fill="#38D430" points="146.5,617.4531,136.5,621.4531,146.5,625.4531,142.5,621.4531" style="stroke:#38D430;stroke-width:1.0;"/><line style="stroke:#38D430;stroke-width:1.0;" x1="140.5" x2="550.5" y1="621.4531" y2="621.4531"/><text fill="#272727" font-family="sans-serif" font-size="14" lengthAdjust="spacing" textLength="141" x="152.5" y="616.1514">Deliver DCS release</text><!--SRC=[ZPHDRvj048Rl_8f9V4cGgjOcLQkeL4gmgnuQAGhfhPS9ZCtAi4lteoxzzLq8c3MnmUA0c7dcdNTdHroaj6QS81Ava7EO1P_Jc-23T-665p1RVAgVmt00i_N7-l4yjMMyH8a5M01Dhhy9hXkeLJXEnEmVmVp6hR_7PBkHml3KAGySu0TjYASdC8UxarBidEHyc7jZqG6Y79KwscC-fCPaxX8jvAHCGusw4KKfE74zxQWZn-GUhGfkQ5AivSQaOlfjY2VqY5ApX9LuXiSZDQCjDEffhmqr9lDJKOHgMgZbtafffdE29QeCfO3ObAMG6Xv4IhcwtSVj1HI6CrrrXETXVRqG6QL5GRBxx3YlxCS0bxxV2QsubfNl_-A-7viNbKXMQYOuN2rNyVLh_8aKvJb9txy4L60JJqEre4ZfvPM-mYtkRJuJ5jTjtNCcYHuivtbXE3mWfV0TPRf3IH26NdSAUFUrhuDRk3ULWgm3TqndjHslHmQy7MfEYOPrVHFgGBO-ncd59jjJhOw24gl2hlq-xpQBxV-Y6G-iYQ1Wt2ZePWVrQUbietP0AoxC9ci3zYM1qmwMKGoIShAhKy_ff5wSP9GQkqXDqMfVT5ZHpSFk5UNiZxNfejR4bn0MVzzNXFAyRewzGQTk3vrMFViV]--></g></svg>