<?xml version="1.0" encoding="windows-1252" standalone="no"?>
<svg xmlns="http://www.w3.org/2000/svg" xmlns:xlink="http://www.w3.org/1999/xlink" contentStyleType="text/css" height="743px" preserveAspectRatio="none" style="width:343px;height:743px;background:#FFFFFF;" version="1.1" viewBox="0 0 343 743" width="343px" zoomAndPan="magnify"><defs/><g><ellipse cx="171.5" cy="20" fill="#222222" rx="10" ry="10" style="stroke:#222222;stroke-width:1.0;"/><rect fill="#38D430" height="38.625" rx="12.5" ry="12.5" style="stroke:#272727;stroke-width:0.5;" width="318" x="12.5" y="50"/><text fill="#000000" font-family="sans-serif" font-size="16" lengthAdjust="spacing" textLength="298" x="22.5" y="74.8516">Identify Regions and Save Properties</text><rect fill="#38D430" height="38.625" rx="12.5" ry="12.5" style="stroke:#272727;stroke-width:0.5;" width="265" x="39" y="108.625"/><text fill="#000000" font-family="sans-serif" font-size="16" lengthAdjust="spacing" textLength="245" x="49" y="133.4766">Separate and Classify Regions</text><rect fill="#38D430" height="38.625" rx="12.5" ry="12.5" style="stroke:#272727;stroke-width:0.5;" width="247" x="48" y="167.25"/><text fill="#000000" font-family="sans-serif" font-size="16" lengthAdjust="spacing" textLength="227" x="58" y="192.1016">Extract and Identify UEFI FV</text><rect fill="#38D430" height="38.625" rx="12.5" ry="12.5" style="stroke:#272727;stroke-width:0.5;" width="255" x="44" y="225.875"/><text fill="#000000" font-family="sans-serif" font-size="16" lengthAdjust="spacing" textLength="235" x="54" y="250.7266">Calculate Metrics for UEFI FV</text><rect fill="#38D430" height="57.25" rx="12.5" ry="12.5" style="stroke:#272727;stroke-width:0.5;" width="210" x="66.5" y="284.5"/><text fill="#000000" font-family="sans-serif" font-size="16" lengthAdjust="spacing" textLength="140" x="96.5" y="309.3516">Classify Paddings</text><text fill="#000000" font-family="sans-serif" font-size="16" lengthAdjust="spacing" textLength="190" x="76.5" y="327.9766">(empty and non-empty)</text><rect fill="#38D430" height="57.25" rx="12.5" ry="12.5" style="stroke:#272727;stroke-width:0.5;" width="321" x="11" y="361.75"/><text fill="#000000" font-family="sans-serif" font-size="16" lengthAdjust="spacing" textLength="301" x="21" y="386.6016">Summarize Region and UEFI FV Sizes</text><text fill="#000000" font-family="sans-serif" font-size="16" lengthAdjust="spacing" textLength="261" x="41" y="405.2266">(empty, data and closed-source)</text><rect fill="#38D430" height="38.625" rx="12.5" ry="12.5" style="stroke:#272727;stroke-width:0.5;" width="153" x="95" y="439"/><text fill="#000000" font-family="sans-serif" font-size="16" lengthAdjust="spacing" textLength="133" x="105" y="463.8516">Verify Total Size</text><rect fill="#38D430" height="38.625" rx="12.5" ry="12.5" style="stroke:#272727;stroke-width:0.5;" width="253" x="45" y="548.9375"/><text fill="#000000" font-family="sans-serif" font-size="16" lengthAdjust="spacing" textLength="233" x="55" y="573.7891">Adjust Data and Report Error</text><polygon fill="#38D430" points="128,497.625,215,497.625,227,509.625,215,521.625,128,521.625,116,509.625,128,497.625" style="stroke:#272727;stroke-width:0.5;"/><text fill="#000000" font-family="sans-serif" font-size="16" lengthAdjust="spacing" textLength="27" x="175.5" y="536.4766">yes</text><text fill="#000000" font-family="sans-serif" font-size="16" lengthAdjust="spacing" textLength="87" x="128" y="515.1641">Mismatch?</text><text fill="#000000" font-family="sans-serif" font-size="16" lengthAdjust="spacing" textLength="20" x="227" y="505.8516">no</text><polygon fill="#38D430" points="171.5,607.5625,183.5,619.5625,171.5,631.5625,159.5,619.5625,171.5,607.5625" style="stroke:#272727;stroke-width:0.5;"/><rect fill="#38D430" height="38.625" rx="12.5" ry="12.5" style="stroke:#272727;stroke-width:0.5;" width="116" x="113.5" y="651.5625"/><text fill="#000000" font-family="sans-serif" font-size="16" lengthAdjust="spacing" textLength="96" x="123.5" y="676.4141">Export Data</text><ellipse cx="171.5" cy="721.1875" fill="none" rx="11" ry="11" style="stroke:#222222;stroke-width:1.0;"/><ellipse cx="171.5" cy="721.1875" fill="#222222" rx="6" ry="6" style="stroke:#222222;stroke-width:1.0;"/><line style="stroke:#181818;stroke-width:1.0;" x1="171.5" x2="171.5" y1="30" y2="50"/><polygon fill="#181818" points="167.5,40,171.5,50,175.5,40,171.5,44" style="stroke:#181818;stroke-width:1.0;"/><line style="stroke:#181818;stroke-width:1.0;" x1="171.5" x2="171.5" y1="88.625" y2="108.625"/><polygon fill="#181818" points="167.5,98.625,171.5,108.625,175.5,98.625,171.5,102.625" style="stroke:#181818;stroke-width:1.0;"/><line style="stroke:#181818;stroke-width:1.0;" x1="171.5" x2="171.5" y1="147.25" y2="167.25"/><polygon fill="#181818" points="167.5,157.25,171.5,167.25,175.5,157.25,171.5,161.25" style="stroke:#181818;stroke-width:1.0;"/><line style="stroke:#181818;stroke-width:1.0;" x1="171.5" x2="171.5" y1="205.875" y2="225.875"/><polygon fill="#181818" points="167.5,215.875,171.5,225.875,175.5,215.875,171.5,219.875" style="stroke:#181818;stroke-width:1.0;"/><line style="stroke:#181818;stroke-width:1.0;" x1="171.5" x2="171.5" y1="264.5" y2="284.5"/><polygon fill="#181818" points="167.5,274.5,171.5,284.5,175.5,274.5,171.5,278.5" style="stroke:#181818;stroke-width:1.0;"/><line style="stroke:#181818;stroke-width:1.0;" x1="171.5" x2="171.5" y1="341.75" y2="361.75"/><polygon fill="#181818" points="167.5,351.75,171.5,361.75,175.5,351.75,171.5,355.75" style="stroke:#181818;stroke-width:1.0;"/><line style="stroke:#181818;stroke-width:1.0;" x1="171.5" x2="171.5" y1="419" y2="439"/><polygon fill="#181818" points="167.5,429,171.5,439,175.5,429,171.5,433" style="stroke:#181818;stroke-width:1.0;"/><line style="stroke:#181818;stroke-width:1.0;" x1="171.5" x2="171.5" y1="521.625" y2="548.9375"/><polygon fill="#181818" points="167.5,538.9375,171.5,548.9375,175.5,538.9375,171.5,542.9375" style="stroke:#181818;stroke-width:1.0;"/><line style="stroke:#181818;stroke-width:1.0;" x1="227" x2="308" y1="509.625" y2="509.625"/><polygon fill="#181818" points="304,558.25,308,568.25,312,558.25,308,562.25" style="stroke:#181818;stroke-width:1.0;"/><line style="stroke:#181818;stroke-width:1.0;" x1="308" x2="308" y1="509.625" y2="619.5625"/><line style="stroke:#181818;stroke-width:1.0;" x1="308" x2="183.5" y1="619.5625" y2="619.5625"/><polygon fill="#181818" points="193.5,615.5625,183.5,619.5625,193.5,623.5625,189.5,619.5625" style="stroke:#181818;stroke-width:1.0;"/><line style="stroke:#181818;stroke-width:1.0;" x1="171.5" x2="171.5" y1="587.5625" y2="607.5625"/><polygon fill="#181818" points="167.5,597.5625,171.5,607.5625,175.5,597.5625,171.5,601.5625" style="stroke:#181818;stroke-width:1.0;"/><line style="stroke:#181818;stroke-width:1.0;" x1="171.5" x2="171.5" y1="477.625" y2="497.625"/><polygon fill="#181818" points="167.5,487.625,171.5,497.625,175.5,487.625,171.5,491.625" style="stroke:#181818;stroke-width:1.0;"/><line style="stroke:#181818;stroke-width:1.0;" x1="171.5" x2="171.5" y1="631.5625" y2="651.5625"/><polygon fill="#181818" points="167.5,641.5625,171.5,651.5625,175.5,641.5625,171.5,645.5625" style="stroke:#181818;stroke-width:1.0;"/><line style="stroke:#181818;stroke-width:1.0;" x1="171.5" x2="171.5" y1="690.1875" y2="710.1875"/><polygon fill="#181818" points="167.5,700.1875,171.5,710.1875,175.5,700.1875,171.5,704.1875" style="stroke:#181818;stroke-width:1.0;"/><!--SRC=[VP1DQm8n48Rl-HLJlEn2XQhzmZsKrW_m88YstaCogwdPP4bcfRRqlpU9rculPY2GUMUUUJDN4ajb44PMMzU3pk1HtWvks5KxtOTE_o76__G0EkLT3CRyJfcQErx164lUQ9fQGolrYT2xRwlX9aNA6lXY4CuB5xkDiusHYNZY7YNh9BfMki- -soWkIEqL7IwHUfT85BmmDfn9DAJA0onn4unvu4R2YkyH5ixM6FoYBzXmXN4iOP97cdlVwWdwv8DSi9JaC_9jCft1T1ta4TUYqR5_ZkIKy506Dtzwz7ccBhYKocmyox2gmmyZqrZJJQyycccgYhkutgE1L762GLoxJny_jb-3vCHJYT3Me-nwspY14RH65mU-Mk8wDHPCbP3DbQyuYUrJ3hH50za1VHwGmsVvtdY2yIzmYRLr11Fdh2iOQe-G6PipD5ALB6ubwR6-21ktzGy0]--></g></svg>