<?xml version="1.0" encoding="windows-1252" standalone="no"?>
<svg xmlns="http://www.w3.org/2000/svg" xmlns:xlink="http://www.w3.org/1999/xlink" contentStyleType="text/css" height="450px" preserveAspectRatio="none" style="width:1044px;height:450px;background:#F5F5F5;" version="1.1" viewBox="0 0 1044 450" width="1044px" zoomAndPan="magnify"><defs/><g><rect fill="#F5F5F5" height="450" style="stroke:none;stroke-width:1.0;" width="1044" x="0" y="0"/><line style="stroke:#181818;stroke-width:0.5;stroke-dasharray:5.0,5.0;" x1="43" x2="43" y1="81.2969" y2="369.6719"/><line style="stroke:#181818;stroke-width:0.5;stroke-dasharray:5.0,5.0;" x1="447.5" x2="447.5" y1="81.2969" y2="369.6719"/><line style="stroke:#181818;stroke-width:0.5;stroke-dasharray:5.0,5.0;" x1="708" x2="708" y1="81.2969" y2="369.6719"/><line style="stroke:#181818;stroke-width:0.5;stroke-dasharray:5.0,5.0;" x1="930.5" x2="930.5" y1="81.2969" y2="369.6719"/><text fill="#272727" font-family="sans-serif" font-size="14" lengthAdjust="spacing" textLength="70" x="5" y="77.9951">Customer</text><ellipse cx="43" cy="13.5" fill="#38D430" rx="8" ry="8" style="stroke:#181818;stroke-width:0.5;"/><path d="M43,21.5 L43,48.5 M30,29.5 L56,29.5 M43,48.5 L30,63.5 M43,48.5 L56,63.5 " fill="none" style="stroke:#181818;stroke-width:0.5;"/><text fill="#272727" font-family="sans-serif" font-size="14" lengthAdjust="spacing" textLength="70" x="5" y="381.667">Customer</text><ellipse cx="43" cy="393.4688" fill="#38D430" rx="8" ry="8" style="stroke:#181818;stroke-width:0.5;"/><path d="M43,401.4688 L43,428.4688 M30,409.4688 L56,409.4688 M43,428.4688 L30,443.4688 M43,428.4688 L56,443.4688 " fill="none" style="stroke:#181818;stroke-width:0.5;"/><rect fill="#38D430" height="62.8906" rx="2.5" ry="2.5" style="stroke:#181818;stroke-width:0.5;" width="167" x="364.5" y="17.4063"/><text fill="#272727" font-family="sans-serif" font-size="14" lengthAdjust="spacing" textLength="101" x="397.5" y="37.4014">Dasharo Entry</text><text fill="#272727" font-family="sans-serif" font-size="14" lengthAdjust="spacing" textLength="153" x="371.5" y="53.6982">Subscription Reseller</text><text fill="#272727" font-family="sans-serif" font-size="14" lengthAdjust="spacing" textLength="49" x="423.5" y="69.9951">(DESR)</text><rect fill="#38D430" height="62.8906" rx="2.5" ry="2.5" style="stroke:#181818;stroke-width:0.5;" width="167" x="364.5" y="368.6719"/><text fill="#272727" font-family="sans-serif" font-size="14" lengthAdjust="spacing" textLength="101" x="397.5" y="388.667">Dasharo Entry</text><text fill="#272727" font-family="sans-serif" font-size="14" lengthAdjust="spacing" textLength="153" x="371.5" y="404.9639">Subscription Reseller</text><text fill="#272727" font-family="sans-serif" font-size="14" lengthAdjust="spacing" textLength="49" x="423.5" y="421.2607">(DESR)</text><rect fill="#38D430" height="30.2969" rx="2.5" ry="2.5" style="stroke:#181818;stroke-width:0.5;" width="116" x="650" y="50"/><text fill="#272727" font-family="sans-serif" font-size="14" lengthAdjust="spacing" textLength="102" x="657" y="69.9951">Dasharo Team</text><rect fill="#38D430" height="30.2969" rx="2.5" ry="2.5" style="stroke:#181818;stroke-width:0.5;" width="116" x="650" y="368.6719"/><text fill="#272727" font-family="sans-serif" font-size="14" lengthAdjust="spacing" textLength="102" x="657" y="388.667">Dasharo Team</text><rect fill="#38D430" height="46.5938" rx="2.5" ry="2.5" style="stroke:#181818;stroke-width:0.5;" width="215" x="823.5" y="33.7031"/><text fill="#272727" font-family="sans-serif" font-size="14" lengthAdjust="spacing" textLength="201" x="830.5" y="53.6982">Dasharo Supporting Partner</text><text fill="#272727" font-family="sans-serif" font-size="14" lengthAdjust="spacing" textLength="39" x="913.5" y="69.9951">(DSP)</text><rect fill="#38D430" height="46.5938" rx="2.5" ry="2.5" style="stroke:#181818;stroke-width:0.5;" width="215" x="823.5" y="368.6719"/><text fill="#272727" font-family="sans-serif" font-size="14" lengthAdjust="spacing" textLength="201" x="830.5" y="388.667">Dasharo Supporting Partner</text><text fill="#272727" font-family="sans-serif" font-size="14" lengthAdjust="spacing" textLength="39" x="913.5" y="404.9639">(DSP)</text><polygon fill="#38D430" points="436,109.5938,446,113.5938,436,117.5938,440,113.5938" style="stroke:#38D430;stroke-width:1.0;"/><line style="stroke:#38D430;stroke-width:1.0;" x1="43" x2="442" y1="113.5938" y2="113.5938"/><text fill="#272727" font-family="sans-serif" font-size="14" lengthAdjust="spacing" textLength="381" x="50" y="108.292">Buys hardware with Dasharo Entry Subscription (DES)</text><line style="stroke:#38D430;stroke-width:1.0;" x1="448" x2="490" y1="143.8906" y2="143.8906"/><line style="stroke:#38D430;stroke-width:1.0;" x1="490" x2="490" y1="143.8906" y2="156.8906"/><line style="stroke:#38D430;stroke-width:1.0;" x1="449" x2="490" y1="156.8906" y2="156.8906"/><polygon fill="#38D430" points="459,152.8906,449,156.8906,459,160.8906,455,156.8906" style="stroke:#38D430;stroke-width:1.0;"/><text fill="#272727" font-family="sans-serif" font-size="14" lengthAdjust="spacing" textLength="127" x="455" y="138.5889">Collects payment</text><polygon fill="#38D430" points="696,183.1875,706,187.1875,696,191.1875,700,187.1875" style="stroke:#38D430;stroke-width:1.0;"/><line style="stroke:#38D430;stroke-width:1.0;" x1="448" x2="702" y1="187.1875" y2="187.1875"/><text fill="#272727" font-family="sans-serif" font-size="14" lengthAdjust="spacing" textLength="236" x="455" y="181.8857">Sends DES fee minus DESR share</text><polygon fill="#38D430" points="919,213.4844,929,217.4844,919,221.4844,923,217.4844" style="stroke:#38D430;stroke-width:1.0;"/><line style="stroke:#38D430;stroke-width:1.0;" x1="708" x2="925" y1="217.4844" y2="217.4844"/><text fill="#272727" font-family="sans-serif" font-size="14" lengthAdjust="spacing" textLength="199" x="715" y="212.1826">Sends DSP share of DES fee</text><polygon fill="#38D430" points="436,243.7813,446,247.7813,436,251.7813,440,247.7813" style="stroke:#38D430;stroke-width:1.0;"/><line style="stroke:#38D430;stroke-width:1.0;" x1="43" x2="442" y1="247.7813" y2="247.7813"/><text fill="#272727" font-family="sans-serif" font-size="14" lengthAdjust="spacing" textLength="298" x="50" y="242.4795">Renews Dasharo Entry Subscription (DES)</text><line style="stroke:#38D430;stroke-width:1.0;" x1="448" x2="490" y1="278.0781" y2="278.0781"/><line style="stroke:#38D430;stroke-width:1.0;" x1="490" x2="490" y1="278.0781" y2="291.0781"/><line style="stroke:#38D430;stroke-width:1.0;" x1="449" x2="490" y1="291.0781" y2="291.0781"/><polygon fill="#38D430" points="459,287.0781,449,291.0781,459,295.0781,455,291.0781" style="stroke:#38D430;stroke-width:1.0;"/><text fill="#272727" font-family="sans-serif" font-size="14" lengthAdjust="spacing" textLength="127" x="455" y="272.7764">Collects payment</text><polygon fill="#38D430" points="696,317.375,706,321.375,696,325.375,700,321.375" style="stroke:#38D430;stroke-width:1.0;"/><line style="stroke:#38D430;stroke-width:1.0;" x1="448" x2="702" y1="321.375" y2="321.375"/><text fill="#272727" font-family="sans-serif" font-size="14" lengthAdjust="spacing" textLength="236" x="455" y="316.0732">Sends DES fee minus DESR share</text><polygon fill="#38D430" points="919,347.6719,929,351.6719,919,355.6719,923,351.6719" style="stroke:#38D430;stroke-width:1.0;"/><line style="stroke:#38D430;stroke-width:1.0;" x1="708" x2="925" y1="351.6719" y2="351.6719"/><text fill="#272727" font-family="sans-serif" font-size="14" lengthAdjust="spacing" textLength="199" x="715" y="346.3701">Sends DSP share of DES fee</text><!--SRC=[rPCnRy8m48Lt_ue35XWgDK3LgaCb27JgW4YxiLoJ0omIExKTHVJNrmv12P0cNIilplbxxzuvII-YBHS4leobyc0mUOgcatlMgvV7C1W_kdLPdi1W- -0MO_h0HOeA4x00Ph5vbS8KKEdGJ0Jycy2RrlLp30yx9JCHrUIJ6l16EnBHBrYDcoabyzgXTtrs4x46-35gtTZ3kwRQR6QXaQhJfg1QqyWabOA4wKvq9jliLjO5TzHfLd9jLW5zPIH2Mg4oFEGf_Y5ZWwQrXK7JdRMWscm-DFcekurAxjOAtLi2FzD69gHOMgM7_WBr7fM4fJ3gk151zgb3nLF3fO0rQOfZKXinN2o3zQWFgC7jcYtU2PCJSYguvsOooD9KshhOWRjAuLh0S16ioXR1Yh5pNBXxANh2CyopemPh4EMe279kzd0H7oxIkymZLaWh2tibCOL6Guh7n7virNcLsMA1_K-BKM5B10aNsMbmS12nEcorBd0bilk20hazEpHEioP1kVud4_m0]--></g></svg>