<?xml version="1.0" encoding="windows-1252" standalone="no"?>
<svg xmlns="http://www.w3.org/2000/svg" xmlns:xlink="http://www.w3.org/1999/xlink" contentStyleType="text/css" height="437px" preserveAspectRatio="none" style="width:874px;height:437px;background:#F5F5F5;" version="1.1" viewBox="0 0 874 437" width="874px" zoomAndPan="magnify"><defs/><g><rect fill="#F5F5F5" height="437" style="stroke:none;stroke-width:1.0;" width="874" x="0" y="0"/><line style="stroke:#181818;stroke-width:0.5;stroke-dasharray:5.0,5.0;" x1="43" x2="43" y1="81.2969" y2="356.6719"/><line style="stroke:#181818;stroke-width:0.5;stroke-dasharray:5.0,5.0;" x1="226.5" x2="226.5" y1="81.2969" y2="356.6719"/><line style="stroke:#181818;stroke-width:0.5;stroke-dasharray:5.0,5.0;" x1="479" x2="479" y1="81.2969" y2="356.6719"/><line style="stroke:#181818;stroke-width:0.5;stroke-dasharray:5.0,5.0;" x1="760.5" x2="760.5" y1="81.2969" y2="356.6719"/><text fill="#272727" font-family="sans-serif" font-size="14" lengthAdjust="spacing" textLength="70" x="5" y="77.9951">Customer</text><ellipse cx="43" cy="13.5" fill="#38D430" rx="8" ry="8" style="stroke:#181818;stroke-width:0.5;"/><path d="M43,21.5 L43,48.5 M30,29.5 L56,29.5 M43,48.5 L30,63.5 M43,48.5 L56,63.5 " fill="none" style="stroke:#181818;stroke-width:0.5;"/><text fill="#272727" font-family="sans-serif" font-size="14" lengthAdjust="spacing" textLength="70" x="5" y="368.667">Customer</text><ellipse cx="43" cy="380.4688" fill="#38D430" rx="8" ry="8" style="stroke:#181818;stroke-width:0.5;"/><path d="M43,388.4688 L43,415.4688 M30,396.4688 L56,396.4688 M43,415.4688 L30,430.4688 M43,415.4688 L56,430.4688 " fill="none" style="stroke:#181818;stroke-width:0.5;"/><rect fill="#38D430" height="62.8906" rx="2.5" ry="2.5" style="stroke:#181818;stroke-width:0.5;" width="167" x="143.5" y="17.4063"/><text fill="#272727" font-family="sans-serif" font-size="14" lengthAdjust="spacing" textLength="101" x="176.5" y="37.4014">Dasharo Entry</text><text fill="#272727" font-family="sans-serif" font-size="14" lengthAdjust="spacing" textLength="153" x="150.5" y="53.6982">Subscription Reseller</text><text fill="#272727" font-family="sans-serif" font-size="14" lengthAdjust="spacing" textLength="49" x="202.5" y="69.9951">(DESR)</text><rect fill="#38D430" height="62.8906" rx="2.5" ry="2.5" style="stroke:#181818;stroke-width:0.5;" width="167" x="143.5" y="355.6719"/><text fill="#272727" font-family="sans-serif" font-size="14" lengthAdjust="spacing" textLength="101" x="176.5" y="375.667">Dasharo Entry</text><text fill="#272727" font-family="sans-serif" font-size="14" lengthAdjust="spacing" textLength="153" x="150.5" y="391.9639">Subscription Reseller</text><text fill="#272727" font-family="sans-serif" font-size="14" lengthAdjust="spacing" textLength="49" x="202.5" y="408.2607">(DESR)</text><rect fill="#38D430" height="30.2969" rx="2.5" ry="2.5" style="stroke:#181818;stroke-width:0.5;" width="116" x="421" y="50"/><text fill="#272727" font-family="sans-serif" font-size="14" lengthAdjust="spacing" textLength="102" x="428" y="69.9951">Dasharo Team</text><rect fill="#38D430" height="30.2969" rx="2.5" ry="2.5" style="stroke:#181818;stroke-width:0.5;" width="116" x="421" y="355.6719"/><text fill="#272727" font-family="sans-serif" font-size="14" lengthAdjust="spacing" textLength="102" x="428" y="375.667">Dasharo Team</text><rect fill="#38D430" height="46.5938" rx="2.5" ry="2.5" style="stroke:#181818;stroke-width:0.5;" width="215" x="653.5" y="33.7031"/><text fill="#272727" font-family="sans-serif" font-size="14" lengthAdjust="spacing" textLength="201" x="660.5" y="53.6982">Dasharo Supporting Partner</text><text fill="#272727" font-family="sans-serif" font-size="14" lengthAdjust="spacing" textLength="39" x="743.5" y="69.9951">(DSP)</text><rect fill="#38D430" height="46.5938" rx="2.5" ry="2.5" style="stroke:#181818;stroke-width:0.5;" width="215" x="653.5" y="355.6719"/><text fill="#272727" font-family="sans-serif" font-size="14" lengthAdjust="spacing" textLength="201" x="660.5" y="375.667">Dasharo Supporting Partner</text><text fill="#272727" font-family="sans-serif" font-size="14" lengthAdjust="spacing" textLength="39" x="743.5" y="391.9639">(DSP)</text><polygon fill="#38D430" points="215,109.5938,225,113.5938,215,117.5938,219,113.5938" style="stroke:#38D430;stroke-width:1.0;"/><line style="stroke:#38D430;stroke-width:1.0;" x1="43" x2="221" y1="113.5938" y2="113.5938"/><text fill="#272727" font-family="sans-serif" font-size="14" lengthAdjust="spacing" textLength="160" x="50" y="108.292">Initial support request</text><polygon fill="#38D430" points="467,139.8906,477,143.8906,467,147.8906,471,143.8906" style="stroke:#38D430;stroke-width:1.0;"/><line style="stroke:#38D430;stroke-width:1.0;" x1="227" x2="473" y1="143.8906" y2="143.8906"/><text fill="#272727" font-family="sans-serif" font-size="14" lengthAdjust="spacing" textLength="228" x="234" y="138.5889">Escalates unresolved issue to L2</text><polygon fill="#38D430" points="749,170.1875,759,174.1875,749,178.1875,753,174.1875" style="stroke:#38D430;stroke-width:1.0;"/><line style="stroke:#38D430;stroke-width:1.0;" x1="479" x2="755" y1="174.1875" y2="174.1875"/><text fill="#272727" font-family="sans-serif" font-size="14" lengthAdjust="spacing" textLength="243" x="486" y="168.8857">Escalates unresolved issue further</text><polygon fill="#38D430" points="467,200.4844,477,204.4844,467,208.4844,471,204.4844" style="stroke:#38D430;stroke-width:1.0;"/><line style="stroke:#38D430;stroke-width:1.0;" x1="43" x2="473" y1="204.4844" y2="204.4844"/><text fill="#272727" font-family="sans-serif" font-size="14" lengthAdjust="spacing" textLength="375" x="50" y="199.1826">Initial support request to Dasharo Premiere Support</text><polygon fill="#38D430" points="749,230.7813,759,234.7813,749,238.7813,753,234.7813" style="stroke:#38D430;stroke-width:1.0;"/><line style="stroke:#38D430;stroke-width:1.0;" x1="479" x2="755" y1="234.7813" y2="234.7813"/><text fill="#272727" font-family="sans-serif" font-size="14" lengthAdjust="spacing" textLength="243" x="486" y="229.4795">Escalates unresolved issue further</text><polygon fill="#38D430" points="467,261.0781,477,265.0781,467,269.0781,471,265.0781" style="stroke:#38D430;stroke-width:1.0;"/><line style="stroke:#38D430;stroke-width:1.0;" x1="43" x2="473" y1="265.0781" y2="265.0781"/><text fill="#272727" font-family="sans-serif" font-size="14" lengthAdjust="spacing" textLength="357" x="50" y="259.7764">Initial support request to Dasharo public channels</text><line style="stroke:#38D430;stroke-width:1.0;" x1="479" x2="521" y1="295.375" y2="295.375"/><line style="stroke:#38D430;stroke-width:1.0;" x1="521" x2="521" y1="295.375" y2="308.375"/><line style="stroke:#38D430;stroke-width:1.0;" x1="480" x2="521" y1="308.375" y2="308.375"/><polygon fill="#38D430" points="490,304.375,480,308.375,490,312.375,486,308.375" style="stroke:#38D430;stroke-width:1.0;"/><text fill="#272727" font-family="sans-serif" font-size="14" lengthAdjust="spacing" textLength="268" x="486" y="290.0732">Dasharo Entry Subscriber verification</text><polygon fill="#38D430" points="749,334.6719,759,338.6719,749,342.6719,753,338.6719" style="stroke:#38D430;stroke-width:1.0;"/><line style="stroke:#38D430;stroke-width:1.0;" x1="479" x2="755" y1="338.6719" y2="338.6719"/><text fill="#272727" font-family="sans-serif" font-size="14" lengthAdjust="spacing" textLength="243" x="486" y="333.3701">Escalates unresolved issue further</text><!--SRC=[fP91Rzim38Nl_XLiS-aE1PQamueU2dH91WpemQYtMo-Cp2H2PSeJfGxjhv_bE8YJk7RHGXUR-lZU4wMpd5QQ2MRMM3U6qVGwlvf-JSxQvGcC9j_ZEYnFORJw5bUIo9Fc4XqMK04OZFzfsTTGez1DPFgLO7pLxl-1wcdjRE2yrJvj0VUq9ixVm5hSdNFsNsjpVBnt4h45p0oAT7gCZwa-cJlbhHkKgQdUDBOeBHFxuKGxiaykhLHmJODY3TSdbT7VGAmeHUUrqYM-8sD7Jw-5Hp-SjQRwPFu8pL26XHhkL0hZBS4iYBS5kQJSfuVpESe6dOK5U_Voo5bOYdAwzDeoF92GCUGU-MA-o1w-d0CAnAzkYT-4nHRP5k9_Dvc5ihHLdTSGHydH0YxcMTfOP6cIxEB2vMtj2JVmYxNNQ42sxU3YTOXFwks8xNqhUY4AJJLQWS2En9fdoa6B109luNwIjF7OdQNzNQlW_AQQtr6s0zCt8aR7tU5JHuKcHxifV3p7fsAKOMcq0hL1PZ9oacB_UmC7ZmIQDxAiZ9_9wPLM69_BHy_n7m00]--></g></svg>