<?xml version="1.0" encoding="windows-1252" standalone="no"?>
<svg xmlns="http://www.w3.org/2000/svg" xmlns:xlink="http://www.w3.org/1999/xlink" contentStyleType="text/css" height="750px" preserveAspectRatio="none" style="width:1243px;height:750px;background:#F5F5F5;" version="1.1" viewBox="0 0 1243 750" width="1243px" zoomAndPan="magnify"><defs/><g><rect fill="#F5F5F5" height="750" style="stroke:none;stroke-width:1.0;" width="1243" x="0" y="0"/><rect fill="#FFFFFF" height="97.875" style="stroke:#181818;stroke-width:1.0;" width="10" x="450" y="230.0625"/><rect fill="#FFFFFF" height="32.625" style="stroke:#181818;stroke-width:1.0;" width="10" x="450" y="407.1875"/><rect fill="#FFFFFF" height="130.5" style="stroke:#181818;stroke-width:1.0;" width="10" x="450" y="519.0625"/><line style="stroke:#181818;stroke-width:0.5;stroke-dasharray:5.0,5.0;" x1="98" x2="98" y1="83.5625" y2="667.5625"/><line style="stroke:#181818;stroke-width:0.5;stroke-dasharray:5.0,5.0;" x1="454.5" x2="454.5" y1="83.5625" y2="667.5625"/><line style="stroke:#181818;stroke-width:0.5;stroke-dasharray:5.0,5.0;" x1="733" x2="733" y1="83.5625" y2="667.5625"/><line style="stroke:#181818;stroke-width:0.5;stroke-dasharray:5.0,5.0;" x1="866" x2="866" y1="83.5625" y2="667.5625"/><line style="stroke:#181818;stroke-width:0.5;stroke-dasharray:5.0,5.0;" x1="1002" x2="1002" y1="83.5625" y2="667.5625"/><line style="stroke:#181818;stroke-width:0.5;stroke-dasharray:5.0,5.0;" x1="1153" x2="1153" y1="83.5625" y2="667.5625"/><rect fill="#F5F5F5" height="60.5625" rx="2.5" ry="2.5" style="stroke:#38D430;stroke-width:2.0;" width="146" x="25" y="22"/><text fill="#272727" font-family="sans-serif" font-size="20" font-weight="bold" lengthAdjust="spacing" textLength="81" x="57.5" y="47.5645">Zarhus</text><text fill="#272727" font-family="sans-serif" font-size="20" font-weight="bold" lengthAdjust="spacing" textLength="132" x="32" y="70.8457">Community</text><rect fill="#F5F5F5" height="60.5625" rx="2.5" ry="2.5" style="stroke:#38D430;stroke-width:2.0;" width="146" x="25" y="666.5625"/><text fill="#272727" font-family="sans-serif" font-size="20" font-weight="bold" lengthAdjust="spacing" textLength="81" x="57.5" y="692.127">Zarhus</text><text fill="#272727" font-family="sans-serif" font-size="20" font-weight="bold" lengthAdjust="spacing" textLength="132" x="32" y="715.4082">Community</text><rect fill="#F5F5F5" height="60.5625" rx="2.5" ry="2.5" style="stroke:#38D430;stroke-width:2.0;" width="95" x="407.5" y="22"/><text fill="#272727" font-family="sans-serif" font-size="20" font-weight="bold" lengthAdjust="spacing" textLength="81" x="414.5" y="47.5645">Zarhus</text><text fill="#272727" font-family="sans-serif" font-size="20" font-weight="bold" lengthAdjust="spacing" textLength="64" x="423" y="70.8457">Team</text><rect fill="#F5F5F5" height="60.5625" rx="2.5" ry="2.5" style="stroke:#38D430;stroke-width:2.0;" width="95" x="407.5" y="666.5625"/><text fill="#272727" font-family="sans-serif" font-size="20" font-weight="bold" lengthAdjust="spacing" textLength="81" x="414.5" y="692.127">Zarhus</text><text fill="#272727" font-family="sans-serif" font-size="20" font-weight="bold" lengthAdjust="spacing" textLength="64" x="423" y="715.4082">Team</text><text fill="#272727" font-family="sans-serif" font-size="20" font-weight="bold" lengthAdjust="spacing" textLength="114" x="673" y="78.8457">Upstream</text><ellipse cx="733" cy="44.2813" fill="#F5F5F5" rx="12" ry="12" style="stroke:#38D430;stroke-width:2.0;"/><line style="stroke:#38D430;stroke-width:2.0;" x1="721" x2="745" y1="58.2813" y2="58.2813"/><text fill="#272727" font-family="sans-serif" font-size="20" font-weight="bold" lengthAdjust="spacing" textLength="114" x="673" y="685.127">Upstream</text><ellipse cx="733" cy="705.8438" fill="#F5F5F5" rx="12" ry="12" style="stroke:#38D430;stroke-width:2.0;"/><line style="stroke:#38D430;stroke-width:2.0;" x1="721" x2="745" y1="719.8438" y2="719.8438"/><text fill="#272727" font-family="sans-serif" font-size="20" font-weight="bold" lengthAdjust="spacing" textLength="120" x="803" y="55.5645">Zarhus OS</text><text fill="#272727" font-family="sans-serif" font-size="20" font-weight="bold" lengthAdjust="spacing" textLength="71" x="827.5" y="78.8457">Public</text><ellipse cx="866" cy="21" fill="#F5F5F5" rx="12" ry="12" style="stroke:#38D430;stroke-width:2.0;"/><line style="stroke:#38D430;stroke-width:2.0;" x1="854" x2="878" y1="35" y2="35"/><text fill="#272727" font-family="sans-serif" font-size="20" font-weight="bold" lengthAdjust="spacing" textLength="120" x="803" y="685.127">Zarhus OS</text><text fill="#272727" font-family="sans-serif" font-size="20" font-weight="bold" lengthAdjust="spacing" textLength="71" x="827.5" y="708.4082">Public</text><ellipse cx="866" cy="729.125" fill="#F5F5F5" rx="12" ry="12" style="stroke:#38D430;stroke-width:2.0;"/><line style="stroke:#38D430;stroke-width:2.0;" x1="854" x2="878" y1="743.125" y2="743.125"/><text fill="#272727" font-family="sans-serif" font-size="20" font-weight="bold" lengthAdjust="spacing" textLength="120" x="939" y="55.5645">Zarhus OS</text><text fill="#272727" font-family="sans-serif" font-size="20" font-weight="bold" lengthAdjust="spacing" textLength="85" x="956.5" y="78.8457">Private</text><ellipse cx="1002" cy="21" fill="#F5F5F5" rx="12" ry="12" style="stroke:#38D430;stroke-width:2.0;"/><line style="stroke:#38D430;stroke-width:2.0;" x1="990" x2="1014" y1="35" y2="35"/><text fill="#272727" font-family="sans-serif" font-size="20" font-weight="bold" lengthAdjust="spacing" textLength="120" x="939" y="685.127">Zarhus OS</text><text fill="#272727" font-family="sans-serif" font-size="20" font-weight="bold" lengthAdjust="spacing" textLength="85" x="956.5" y="708.4082">Private</text><ellipse cx="1002" cy="729.125" fill="#F5F5F5" rx="12" ry="12" style="stroke:#38D430;stroke-width:2.0;"/><line style="stroke:#38D430;stroke-width:2.0;" x1="990" x2="1014" y1="743.125" y2="743.125"/><rect fill="#F5F5F5" height="60.5625" rx="2.5" ry="2.5" style="stroke:#38D430;stroke-width:2.0;" width="116" x="1095" y="22"/><text fill="#272727" font-family="sans-serif" font-size="20" font-weight="bold" lengthAdjust="spacing" textLength="102" x="1102" y="47.5645">Business</text><text fill="#272727" font-family="sans-serif" font-size="20" font-weight="bold" lengthAdjust="spacing" textLength="69" x="1118.5" y="70.8457">Client</text><rect fill="#F5F5F5" height="60.5625" rx="2.5" ry="2.5" style="stroke:#38D430;stroke-width:2.0;" width="116" x="1095" y="666.5625"/><text fill="#272727" font-family="sans-serif" font-size="20" font-weight="bold" lengthAdjust="spacing" textLength="102" x="1102" y="692.127">Business</text><text fill="#272727" font-family="sans-serif" font-size="20" font-weight="bold" lengthAdjust="spacing" textLength="69" x="1118.5" y="715.4082">Client</text><rect fill="#FFFFFF" height="97.875" style="stroke:#181818;stroke-width:1.0;" width="10" x="450" y="230.0625"/><rect fill="#FFFFFF" height="32.625" style="stroke:#181818;stroke-width:1.0;" width="10" x="450" y="407.1875"/><rect fill="#FFFFFF" height="130.5" style="stroke:#181818;stroke-width:1.0;" width="10" x="450" y="519.0625"/><rect fill="#F5F5F5" height="3" style="stroke:#F5F5F5;stroke-width:1.0;" width="1236" x="0" y="115.875"/><line style="stroke:#38D430;stroke-width:1.0;" x1="0" x2="1236" y1="115.875" y2="115.875"/><line style="stroke:#38D430;stroke-width:1.0;" x1="0" x2="1236" y1="118.875" y2="118.875"/><rect fill="#F5F5F5" height="26.625" style="stroke:#38D430;stroke-width:2.0;" width="361" x="437.5" y="103.5625"/><text fill="#272727" font-family="sans-serif" font-size="16" font-weight="bold" lengthAdjust="spacing" textLength="341" x="443.5" y="122.4141">Community Engagement and Support</text><polygon fill="#272727" points="721,160.8125,731,164.8125,721,168.8125,725,164.8125" style="stroke:#272727;stroke-width:1.0;"/><line style="stroke:#272727;stroke-width:1.0;" x1="98" x2="727" y1="164.8125" y2="164.8125"/><text fill="#272727" font-family="sans-serif" font-size="16" lengthAdjust="spacing" textLength="390" x="105" y="159.0391">Uses &amp; Contributes to Open-Source Components</text><polygon fill="#272727" points="854,193.4375,864,197.4375,854,201.4375,858,197.4375" style="stroke:#272727;stroke-width:1.0;"/><line style="stroke:#272727;stroke-width:1.0;" x1="98" x2="860" y1="197.4375" y2="197.4375"/><text fill="#272727" font-family="sans-serif" font-size="16" lengthAdjust="spacing" textLength="390" x="105" y="191.6641">Uses &amp; Contributes to Open-Source Components</text><polygon fill="#272727" points="854,226.0625,864,230.0625,854,234.0625,858,230.0625" style="stroke:#272727;stroke-width:1.0;"/><line style="stroke:#272727;stroke-width:1.0;" x1="460" x2="860" y1="230.0625" y2="230.0625"/><text fill="#272727" font-family="sans-serif" font-size="16" lengthAdjust="spacing" textLength="292" x="467" y="224.2891">Manages &amp; Integrates Contributions</text><polygon fill="#272727" points="721,258.6875,731,262.6875,721,266.6875,725,262.6875" style="stroke:#272727;stroke-width:1.0;"/><line style="stroke:#272727;stroke-width:1.0;" x1="460" x2="727" y1="262.6875" y2="262.6875"/><text fill="#272727" font-family="sans-serif" font-size="16" lengthAdjust="spacing" textLength="249" x="467" y="256.9141">Manage upstream contribution</text><polygon fill="#272727" points="854,291.3125,864,295.3125,854,299.3125,858,295.3125" style="stroke:#272727;stroke-width:1.0;"/><line style="stroke:#272727;stroke-width:1.0;" x1="460" x2="860" y1="295.3125" y2="295.3125"/><text fill="#272727" font-family="sans-serif" font-size="16" lengthAdjust="spacing" textLength="267" x="467" y="289.5391">Release DTS, RTE OS, and others</text><polygon fill="#272727" points="109,323.9375,99,327.9375,109,331.9375,105,327.9375" style="stroke:#272727;stroke-width:1.0;"/><line style="stroke:#272727;stroke-width:1.0;stroke-dasharray:2.0,2.0;" x1="103" x2="454" y1="327.9375" y2="327.9375"/><text fill="#272727" font-family="sans-serif" font-size="16" lengthAdjust="spacing" textLength="328" x="115" y="322.1641">Provides Updates &amp; Support (Best Effort)</text><rect fill="#F5F5F5" height="3" style="stroke:#F5F5F5;stroke-width:1.0;" width="1236" x="0" y="358.25"/><line style="stroke:#38D430;stroke-width:1.0;" x1="0" x2="1236" y1="358.25" y2="358.25"/><line style="stroke:#38D430;stroke-width:1.0;" x1="0" x2="1236" y1="361.25" y2="361.25"/><rect fill="#F5F5F5" height="26.625" style="stroke:#38D430;stroke-width:2.0;" width="430" x="403" y="345.9375"/><text fill="#272727" font-family="sans-serif" font-size="16" font-weight="bold" lengthAdjust="spacing" textLength="410" x="409" y="364.7891">Enhancements and Proprietary Development</text><polygon fill="#272727" points="854,403.1875,864,407.1875,854,411.1875,858,407.1875" style="stroke:#272727;stroke-width:1.0;"/><line style="stroke:#272727;stroke-width:1.0;" x1="460" x2="860" y1="407.1875" y2="407.1875"/><text fill="#272727" font-family="sans-serif" font-size="16" lengthAdjust="spacing" textLength="234" x="467" y="401.4141">Enhances with New Features</text><polygon fill="#272727" points="990,435.8125,1000,439.8125,990,443.8125,994,439.8125" style="stroke:#272727;stroke-width:1.0;"/><line style="stroke:#272727;stroke-width:1.0;" x1="455" x2="996" y1="439.8125" y2="439.8125"/><text fill="#272727" font-family="sans-serif" font-size="16" lengthAdjust="spacing" textLength="327" x="462" y="434.0391">Develops &amp; Integrates NDA Components</text><rect fill="#F5F5F5" height="3" style="stroke:#F5F5F5;stroke-width:1.0;" width="1236" x="0" y="470.125"/><line style="stroke:#38D430;stroke-width:1.0;" x1="0" x2="1236" y1="470.125" y2="470.125"/><line style="stroke:#38D430;stroke-width:1.0;" x1="0" x2="1236" y1="473.125" y2="473.125"/><rect fill="#F5F5F5" height="26.625" style="stroke:#38D430;stroke-width:2.0;" width="328" x="454" y="457.8125"/><text fill="#272727" font-family="sans-serif" font-size="16" font-weight="bold" lengthAdjust="spacing" textLength="308" x="460" y="476.6641">Business Client Custom Solutions</text><polygon fill="#272727" points="471,515.0625,461,519.0625,471,523.0625,467,519.0625" style="stroke:#272727;stroke-width:1.0;"/><line style="stroke:#272727;stroke-width:1.0;" x1="465" x2="1152" y1="519.0625" y2="519.0625"/><text fill="#272727" font-family="sans-serif" font-size="16" lengthAdjust="spacing" textLength="330" x="477" y="513.2891">Requests Custom Integration &amp; Features</text><polygon fill="#272727" points="854,547.6875,864,551.6875,854,555.6875,858,551.6875" style="stroke:#272727;stroke-width:1.0;"/><line style="stroke:#272727;stroke-width:1.0;" x1="460" x2="860" y1="551.6875" y2="551.6875"/><text fill="#272727" font-family="sans-serif" font-size="16" lengthAdjust="spacing" textLength="319" x="467" y="545.9141">Utilizes Public Components for Solution</text><polygon fill="#272727" points="990,580.3125,1000,584.3125,990,588.3125,994,584.3125" style="stroke:#272727;stroke-width:1.0;"/><line style="stroke:#272727;stroke-width:1.0;" x1="460" x2="996" y1="584.3125" y2="584.3125"/><text fill="#272727" font-family="sans-serif" font-size="16" lengthAdjust="spacing" textLength="326" x="467" y="578.5391">Applies Private Components for Solution</text><polygon fill="#272727" points="1141,612.9375,1151,616.9375,1141,620.9375,1145,616.9375" style="stroke:#272727;stroke-width:1.0;"/><line style="stroke:#272727;stroke-width:1.0;stroke-dasharray:2.0,2.0;" x1="460" x2="1147" y1="616.9375" y2="616.9375"/><text fill="#272727" font-family="sans-serif" font-size="16" lengthAdjust="spacing" textLength="380" x="467" y="611.1641">Delivers Customized Solution with SLA Support</text><polygon fill="#272727" points="1141,645.5625,1151,649.5625,1141,653.5625,1145,649.5625" style="stroke:#272727;stroke-width:1.0;"/><line style="stroke:#272727;stroke-width:1.0;stroke-dasharray:2.0,2.0;" x1="455" x2="1147" y1="649.5625" y2="649.5625"/><text fill="#272727" font-family="sans-serif" font-size="16" lengthAdjust="spacing" textLength="246" x="462" y="643.7891">Delivers Workshops &amp; Training</text><!--SRC=[jLRRQjj047tNLqmS22qaaDYz4N31ZfrII1CJEHHANZRIs5uixwgxAoTfwRztLZUlP2bs2x6VD6Vcp9mvkx8FGfnnWN0X8wdEuB3tANpNE_KEt70N3hiVxRSQxi7XxBtzUfvUSX4pnLRmsmFwZ736aiXSIc7Ir9mdnOOiMCwLJ4JeGBqK6YWb7xSA1e6HQYXLYCh1pXpi1KQBDuunOShmWCTCc1PkDwEzWvFLsEUAp_2ATjRIf8JRE_ZuCq4Hu1U2unQQQiwUNCtsoAUM7XPfPoQqaUzQcfV4fN1pFmirKawvYTgACgozNuetiexucXFZ2xL5HdFd76ta7Wl3pNDBOGwszyqITX9F5pnO2jGQkhKod_z2w9xMe-OvGdYGKRYvV6NssOVAUN745V0VzzhhFA-u_w-uotJE_IxaX8KX5_D2-jQLhs-iTfVTjTMXwkvUmL-xNy-BDsqfl5ebWZA1QUZyO6gHw7jHHZkLv0oU8ddZPjj0nyEq8Tp5sgWYetWeqQpanfya3n4F71QuyUz55jrELdpD36vbP-7gYCD4SxlyYuWJIrfIX4XM6knuNh_l21-BEPlZAaqN8VX974jbeD_tDZaddpV2pk5EeuOZeX16yOV4q9EHS1EZEF5beWBxMxQAfI1ANIMfwVz7AcV_JLpVc20XbkwhC3XNpBALp5mAxR70PBlSKDLO7PaP7oH5972eTiroYn4oZJ2Q-iTmEnsJOyVfUgLPeAfAeVhDaivXegIzg9f62LC9HwKdRuQe3OndCtfuwuNO9CUQEnOBHYyEwwbEkn9dh3WQffxfVyGQ8ncdXfF9EuJaL1eUkLd0DJx29JAJADndcVKJV5uqhvbqFHguFhSBAyuovEVx8j56hi2NKMQm5LIx0kKOqypLM_jMrRINlBOOWyffgFyHLvvbmoDwksd88nj5G8QLG-xSqI2EQNIYoIFxy11HJRVTTSJNTDXofJHQM1PdTlfNW-9ixS_sNQgbNcGUJXNZWduDcYtx2m00]--></g><script xmlns="" id="bw-fido2-page-script"/></svg>